<?xml version="1.0" encoding="utf-8"?>
<!-- Generator: Adobe Illustrator 25.3.1, SVG Export Plug-In . SVG Version: 6.00 Build 0)  -->
<svg version="1.1" id="Layer_1" xmlns="http://www.w3.org/2000/svg" xmlns:xlink="http://www.w3.org/1999/xlink" x="0px" y="0px"
	 width="703.16px" height="158px" viewBox="0 0 703.16 158" style="enable-background:new 0 0 703.16 158;" xml:space="preserve">
<style type="text/css">
	.st0{fill:#FFFFFF;}
	.st1{fill:url(#SVGID_1_);}
	.st2{fill:url(#SVGID_2_);}
	.st3{fill:url(#SVGID_3_);}
	.st4{fill:url(#SVGID_4_);}
	.st5{fill:url(#SVGID_5_);}
	.st6{fill:url(#SVGID_6_);}
	.st7{fill:url(#SVGID_7_);}
	.st8{fill:url(#SVGID_8_);}
	.st9{fill:url(#SVGID_9_);}
	.st10{fill:url(#SVGID_10_);}
	.st11{fill:url(#SVGID_11_);}
	.st12{fill:url(#SVGID_12_);}
	.st13{fill:url(#SVGID_13_);}
	.st14{fill:url(#SVGID_14_);}
	.st15{fill:#FF800D;}
	.st16{fill:#0061FF;}
	.st17{fill:#232323;}
	.st18{fill:url(#SVGID_15_);}
	.st19{fill:url(#SVGID_16_);}
	.st20{fill:url(#SVGID_17_);}
	.st21{fill:url(#SVGID_18_);}
	.st22{fill:url(#SVGID_19_);}
</style>
<g>
	<g>
		<path class="st0" d="M220.69,48.27c16.93,0,30.71,13.78,30.71,30.71s-13.78,30.71-30.71,30.71h-21.05V48.27H220.69 M220.69,30.69
			h-28.97c-5.28,0-9.66,4.38-9.66,9.66v77.26c0,5.28,4.38,9.66,9.66,9.66h28.97c26.71,0,48.29-21.58,48.29-48.29
			S247.4,30.69,220.69,30.69L220.69,30.69z"/>
		<g>
			<path class="st0" d="M353.75,118.49c0,4.8-3.98,8.78-8.78,8.78s-8.78-3.98-8.78-8.78V92.15c0-9.74-7.82-17.56-17.56-17.56
				c-9.74,0-17.56,7.82-17.56,17.56v26.33c0,4.8-3.98,8.78-8.78,8.78s-8.78-3.98-8.78-8.78v-79c0-4.8,3.98-8.78,8.78-8.78
				s8.78,3.98,8.78,8.78v22.36c5.07-3.02,11.11-4.8,17.56-4.8c19.34,0,35.11,15.77,35.11,35.11V118.49z"/>
			<path class="st0" d="M388.32,118.49c0,4.8-3.98,8.78-8.78,8.78s-8.78-3.98-8.78-8.78V65.82c0-4.8,3.98-8.78,8.78-8.78
				s8.78,3.98,8.78,8.78V118.49z"/>
			<path class="st0" d="M504.08,118.49c0,4.8-3.98,8.78-8.78,8.78c-2.33,0-4.52-0.96-6.17-2.61L455.8,91.33l-33.33,33.33
				c-1.65,1.65-3.84,2.61-6.17,2.61c-4.8,0-8.78-3.98-8.78-8.78V39.48c0-4.8,3.98-8.78,8.78-8.78s8.78,3.98,8.78,8.78v57.89
				l24.55-24.55c1.64-1.78,3.98-2.61,6.17-2.61c2.2,0,4.53,0.82,6.17,2.61l24.55,24.55V39.48c0-4.8,3.98-8.78,8.78-8.78
				c4.8,0,8.78,3.98,8.78,8.78V118.49z"/>
			<path class="st0" d="M540.85,118.49c0,4.8-3.98,8.78-8.78,8.78c-4.8,0-8.78-3.98-8.78-8.78V65.82c0-4.8,3.98-8.78,8.78-8.78
				c4.8,0,8.78,3.98,8.78,8.78V118.49z"/>
			<path class="st0" d="M597.36,109.71c2.47,0,4.39-1.92,4.39-4.39s-1.92-4.39-4.39-4.39H579.8c-12.07,0-21.95-9.88-21.95-21.95
				s9.87-21.95,21.95-21.95h26.33c4.8,0,8.78,3.98,8.78,8.78s-3.98,8.78-8.78,8.78H579.8c-2.47,0-4.39,1.92-4.39,4.39
				c0,2.47,1.92,4.39,4.39,4.39h17.56c12.07,0,21.94,9.88,21.94,21.95s-9.87,21.95-21.94,21.95h-30.73c-4.8,0-8.78-3.98-8.78-8.78
				c0-4.8,3.98-8.78,8.78-8.78H597.36z"/>
			<path class="st0" d="M667.04,127.26c-19.34,0-35.11-15.77-35.11-35.11s15.77-35.11,35.11-35.11c19.34,0,35.11,15.77,35.11,35.11
				c0,4.8-3.98,8.78-8.78,8.78h-41.56c3.02,5.35,8.64,8.78,15.23,8.78h8.78c4.8,0,8.78,3.98,8.78,8.78c0,4.8-3.98,8.78-8.78,8.78
				H667.04z M651.81,83.37h30.45c-3.02-5.21-8.78-8.78-15.22-8.78C660.46,74.6,654.83,78.16,651.81,83.37z"/>
			<ellipse class="st0" cx="379.54" cy="40.57" rx="9.87" ry="9.88"/>
			<ellipse class="st0" cx="532.07" cy="40.57" rx="9.87" ry="9.88"/>
		</g>
	</g>
	<g>
		<path class="st0" d="M110.4,0.55H11.08c-5.56,0-10.07,4.51-10.07,10.07v109.73c0,4.07,2.45,7.74,6.22,9.3
			c3.75,1.56,8.09,0.7,10.97-2.18l48.5-48.5c3.93-3.93,3.93-10.31,0-14.24c-3.93-3.93-10.31-3.93-14.24,0L21.15,96.03V20.68h89.26
			c15.07,0,27.34,12.26,27.34,27.34v61.92c0,15.07-12.26,27.34-27.34,27.34H62.39l31.31-31.31c3.93-3.93,3.93-10.31,0-14.24
			c-3.93-3.93-10.31-3.93-14.24,0l-48.5,48.5c-2.88,2.88-3.74,7.21-2.18,10.97c1.56,3.76,5.23,6.22,9.3,6.22h72.32
			c26.18,0,47.47-21.3,47.47-47.47V48.02C157.88,21.84,136.58,0.55,110.4,0.55z"/>
		<path class="st0" d="M109.98,85.51c5.56,0,10.07-4.51,10.07-10.07v-27c0-5.56-4.51-10.07-10.07-10.07h-27
			c-5.56,0-10.07,4.51-10.07,10.07s4.51,10.07,10.07,10.07h16.93v16.93C99.91,81,104.42,85.51,109.98,85.51z"/>
	</g>
</g>
</svg>
