<svg width="96" height="96" viewBox="0 0 96 96" fill="none" xmlns="http://www.w3.org/2000/svg">
<path d="M74.948 29.38C74.624 28.5701 74.1272 27.8406 73.4923 27.2423C72.8574 26.6441 72.0997 26.1914 71.272 25.916L61.82 22.764L59.296 17.716C58.8001 16.7172 58.0344 15.8772 57.0857 15.2912C56.137 14.7051 55.0432 14.3964 53.928 14.4H42.872C41.7569 14.3964 40.6631 14.7051 39.7144 15.2912C38.7657 15.8772 38 16.7172 37.504 17.716L34.98 22.764L25.528 25.916C24.7003 26.1914 23.9426 26.6441 23.3078 27.2423C22.6729 27.8406 22.1761 28.5701 21.852 29.38L15.116 46.224C14.6408 47.4051 14.3977 48.6668 14.4 49.94V74.4C14.4 75.4608 14.8215 76.4783 15.5716 77.2284C16.3218 77.9785 17.3392 78.4 18.4 78.4H22.4C23.4609 78.4 24.4783 77.9785 25.2285 77.2284C25.9786 76.4783 26.4 75.4608 26.4 74.4V68.696L28.4 62.024V66.512C28.518 68.767 29.2061 70.9553 30.4 72.872V78.4C30.4 79.4608 30.8215 80.4783 31.5716 81.2284C32.3218 81.9785 33.3392 82.4 34.4 82.4H62.4C63.4609 82.4 64.4783 81.9785 65.2285 81.2284C65.9786 80.4783 66.4 79.4608 66.4 78.4V72.872C67.5941 70.9553 68.2822 68.767 68.4 66.512V62.024L70.4 68.696V74.4C70.4 75.4608 70.8215 76.4783 71.5716 77.2284C72.3218 77.9785 73.3392 78.4 74.4 78.4H78.4C79.4609 78.4 80.4783 77.9785 81.2285 77.2284C81.9786 76.4783 82.4 75.4608 82.4 74.4V49.94C82.4027 48.6681 82.1596 47.4076 81.684 46.228L74.948 29.38ZM70.356 29.92C68.2228 33.1279 66.2691 36.4517 64.504 39.876C64.292 40.676 64.472 39.748 64.4 62.4C62.8087 62.4 61.2826 61.7678 60.1574 60.6426C59.0322 59.5174 58.4 57.9913 58.4 56.4C58.4 55.8695 58.1893 55.3608 57.8143 54.9858C57.4392 54.6107 56.9305 54.4 56.4 54.4C55.8696 54.4 55.3609 54.6107 54.9858 54.9858C54.6108 55.3608 54.4 55.8695 54.4 56.4C54.4 59.0521 55.4536 61.5957 57.329 63.471C59.2043 65.3464 61.7479 66.4 64.4 66.4V66.512C64.3169 67.8904 63.8922 69.2266 63.164 70.4H50.4V33.472L60.696 26.608C72.12 30.492 69.56 29.456 70.356 29.92ZM40 21.704L42.476 26.036L38.996 23.716L40 21.704ZM56.832 21.704L57.836 23.704L54.356 26.024L56.832 21.704ZM54.088 18.44L48.4 28.368L42.728 18.44C43.54 18.4 53.256 18.4 54.072 18.44H54.088ZM36.104 26.608L46.4 33.472V70.4H33.636C32.9018 69.2294 32.4765 67.8917 32.4 66.512V66.4C35.0522 66.4 37.5957 65.3464 39.4711 63.471C41.3465 61.5957 42.4 59.0521 42.4 56.4C42.4 55.8695 42.1893 55.3608 41.8143 54.9858C41.4392 54.6107 40.9305 54.4 40.4 54.4C39.8696 54.4 39.3609 54.6107 38.9858 54.9858C38.6108 55.3608 38.4 55.8695 38.4 56.4C38.4 57.9913 37.7679 59.5174 36.6427 60.6426C35.5175 61.7678 33.9913 62.4 32.4 62.4C32.328 39.752 32.508 40.656 32.296 39.876C30.5323 36.451 28.5785 33.1271 26.444 29.92C27.056 29.56 32.024 28 36.104 26.608ZM18.4 74.4V70.4H22.4V74.4H18.4ZM28.148 48.952L22.912 66.4H18.4V49.94C18.3997 49.1769 18.545 48.4207 18.828 47.712L24.28 34.088L28.4 40.952V47.228C28.4004 47.8118 28.3155 48.3926 28.148 48.952ZM34.4 78.4V74.4H62.4V78.4H34.4ZM68.4 47.228V40.952L72.52 34.088L77.972 47.716C78.2559 48.423 78.4012 49.1781 78.4 49.94V66.4H73.888L68.652 48.948C68.4843 48.3901 68.3994 47.8106 68.4 47.228ZM74.4 74.4V70.4H78.4V74.4H74.4Z" fill="#393D46"/>
</svg>
