<svg width="80" height="48" viewBox="0 0 80 48" fill="none" xmlns="http://www.w3.org/2000/svg">
<rect width="80" height="48" fill="white"/>
<path d="M26.5 24.1999C26.5 23.7892 26.6581 23.3954 26.9394 23.105C27.2207 22.8146 27.6022 22.6515 28 22.6515L48.385 22.6515L46.435 20.6541C46.1526 20.3625 45.9939 19.9671 45.9939 19.5547C45.9939 19.1424 46.1526 18.7469 46.435 18.4554C46.7175 18.1638 47.1006 18 47.5 18C47.8995 18 48.2826 18.1638 48.565 18.4554L53.065 23.1005C53.2732 23.3183 53.4142 23.5948 53.4702 23.8951C53.5263 24.1955 53.4949 24.5063 53.38 24.7883C53.2675 25.071 53.0764 25.3131 52.8308 25.4839C52.5852 25.6548 52.2962 25.7467 52 25.7483L28 25.7483C27.6022 25.7483 27.2207 25.5851 26.9394 25.2948C26.6581 25.0044 26.5 24.6105 26.5 24.1999Z" fill="#393D46"/>
<path d="M46 28.845C45.9988 28.6412 46.0367 28.4392 46.1113 28.2506C46.186 28.0619 46.2959 27.8903 46.435 27.7457L50.935 23.1005C51.2174 22.8089 51.6005 22.6451 52 22.6451C52.1978 22.6451 52.3936 22.6854 52.5763 22.7635C52.7591 22.8416 52.9251 22.9561 53.065 23.1005C53.2048 23.2449 53.3158 23.4163 53.3915 23.6049C53.4671 23.7935 53.5061 23.9957 53.5061 24.1999C53.5061 24.6122 53.3474 25.0077 53.065 25.2992L48.565 29.9444C48.4255 30.0895 48.2596 30.2047 48.0768 30.2833C47.894 30.3619 47.698 30.4024 47.5 30.4024C47.3019 30.4024 47.1059 30.3619 46.9231 30.2833C46.7403 30.2047 46.5744 30.0895 46.435 29.9444C46.2959 29.7997 46.186 29.6281 46.1113 29.4395C46.0367 29.2508 45.9988 29.0488 46 28.845Z" fill="#393D46"/>
</svg>
