<svg width="96" height="96" viewBox="0 0 96 96" fill="none" xmlns="http://www.w3.org/2000/svg">
<path d="M62 14H33.7599C32.7407 13.998 31.7591 14.3853 31.0157 15.0826C30.2723 15.7799 29.8231 16.7347 29.7599 17.752L26.0079 77.752C25.9735 78.2981 26.0514 78.8455 26.2369 79.3602C26.4225 79.875 26.7116 80.3462 27.0866 80.7448C27.4615 81.1433 27.9142 81.4607 28.4167 81.6773C28.9192 81.8939 29.4608 82.0051 30.0079 82.004H38.1879C39.1348 82.0036 40.0507 81.6673 40.7729 81.055C41.4951 80.4427 41.9767 79.594 42.1319 78.66L47.8799 44.168L53.6279 78.66C53.7841 79.5933 54.266 80.441 54.9881 81.0525C55.7102 81.664 56.6257 81.9997 57.5719 82H65.7519C66.2988 82.0011 66.84 81.89 67.3422 81.6736C67.8444 81.4573 68.2969 81.1403 68.6718 80.7422C69.0467 80.344 69.3359 79.8733 69.5217 79.359C69.7075 78.8447 69.7859 78.2978 69.7519 77.752L66 17.752C65.9368 16.7347 65.4876 15.7799 64.7442 15.0826C64.0008 14.3853 63.0192 13.998 62 14ZM62 18L62.4399 25.044C61.0794 24.4375 59.9243 23.449 59.1148 22.1986C58.3054 20.9481 57.8764 19.4896 57.8799 18H62ZM37.8799 18C37.883 19.4895 37.4538 20.9478 36.6444 22.1982C35.835 23.4485 34.6801 24.4371 33.3199 25.044L33.7599 18H37.8799ZM57.5719 78L49.8519 31.672C49.7731 31.206 49.5319 30.783 49.1709 30.4779C48.8099 30.1729 48.3526 30.0055 47.8799 30.0055C47.4073 30.0055 46.95 30.1729 46.589 30.4779C46.228 30.783 45.9868 31.206 45.9079 31.672L38.1879 78H30.0079L33.0319 29.66C35.5138 28.8407 37.6885 27.2874 39.2684 25.2054C40.8483 23.1234 41.759 20.6108 41.8799 18H45.8799V24C45.8799 24.5304 46.0907 25.0391 46.4657 25.4142C46.8408 25.7893 47.3495 26 47.8799 26C48.4104 26 48.9191 25.7893 49.2942 25.4142C49.6692 25.0391 49.8799 24.5304 49.8799 24V18H53.8799C54.0009 20.6108 54.9116 23.1234 56.4915 25.2054C58.0714 27.2874 60.2461 28.8407 62.7279 29.66L65.7519 78H57.5719Z" fill="#393D46"/>
</svg>
