<svg width="96" height="96" viewBox="0 0 96 96" fill="none" xmlns="http://www.w3.org/2000/svg">
<path d="M78.0016 28.1224H57.2377C56.5219 28.1233 55.8197 28.3174 55.2051 28.6842C54.5904 29.051 54.0862 29.5769 53.7457 30.2064C53.4738 29.0249 52.9371 27.9207 52.1759 26.9771C51.4147 26.0335 50.449 25.2753 49.3518 24.7596C48.2546 24.244 47.0545 23.9845 45.8423 24.0007C44.63 24.0169 43.4373 24.3085 42.3543 24.8533C41.2713 25.398 40.3262 26.1819 39.5905 27.1455C38.8549 28.1091 38.3478 29.2273 38.1078 30.4157C37.8677 31.604 37.9008 32.8313 38.2046 34.005C38.5085 35.1786 39.0751 36.2679 39.8617 37.1904C39.3817 37.2904 36.6016 37.9304 35.5176 38.1824C35.0138 38.3206 34.5841 38.6504 34.3203 39.1013C34.0565 39.5522 33.9796 40.0885 34.1061 40.5953C34.2325 41.1022 34.5523 41.5395 34.997 41.8137C35.4417 42.0878 35.976 42.1771 36.4857 42.0624C39.9672 41.0631 43.5493 40.4553 47.1657 40.2504C44.1771 42.7607 40.3966 44.1323 36.4937 44.1224C31.3376 44.1256 26.3303 45.8507 22.2664 49.024C18.2025 52.1973 15.3148 56.637 14.0616 61.6384C13.9536 62.0744 14.0257 63.8264 14.0017 66.1224C14.0017 66.9104 14.1568 67.6906 14.4584 68.4185C14.7599 69.1465 15.2019 69.8079 15.759 70.3651C16.3162 70.9222 16.9776 71.3642 17.7055 71.6657C18.4335 71.9672 19.2137 72.1224 20.0017 72.1224H54.3457C55.9349 72.1173 57.4581 71.4864 58.5857 70.3664L60.0017 68.9504L61.4177 70.3664C62.5452 71.4864 64.0684 72.1173 65.6576 72.1224H76.0017C77.5929 72.1224 79.1191 71.4903 80.2443 70.3651C81.3695 69.2398 82.0016 67.7137 82.0016 66.1224V32.1224C82.0016 31.0616 81.5802 30.0441 80.8301 29.294C80.0799 28.5439 79.0625 28.1224 78.0016 28.1224ZM46.0017 36.1224C45.2105 36.1224 44.4372 35.8878 43.7794 35.4483C43.1216 35.0088 42.6089 34.3841 42.3061 33.6532C42.0034 32.9223 41.9242 32.118 42.0785 31.3421C42.2328 30.5661 42.6138 29.8534 43.1732 29.294C43.7326 28.7346 44.4454 28.3536 45.2213 28.1993C45.9972 28.0449 46.8015 28.1242 47.5324 28.4269C48.2633 28.7297 48.888 29.2423 49.3275 29.9001C49.7671 30.5579 50.0017 31.3313 50.0017 32.1224V36.1224H46.0017ZM36.4937 48.1224C38.4942 48.1193 40.4839 47.8283 42.4017 47.2584C43.0851 48.0599 43.8143 48.8212 44.5856 49.5384C44.9612 49.914 45.4705 50.125 46.0017 50.125C46.5328 50.125 47.0421 49.914 47.4177 49.5384C47.7932 49.1629 48.0042 48.6535 48.0042 48.1224C48.0042 47.5913 47.7932 47.082 47.4177 46.7064L46.3137 45.6024C46.8137 45.3304 47.3136 45.0544 47.7896 44.7384L50.5897 47.5384C50.9652 47.914 51.4746 48.125 52.0057 48.125C52.5368 48.125 53.0461 47.914 53.4216 47.5384C53.7972 47.1629 54.0082 46.6535 54.0082 46.1224C54.0082 45.5913 53.7972 45.082 53.4216 44.7064L50.9137 42.2024C51.3137 41.8024 51.7136 41.4024 52.0577 41.0024L54.5897 43.5384C54.7756 43.7244 54.9964 43.8719 55.2393 43.9725C55.4823 44.0732 55.7427 44.125 56.0057 44.125C56.2686 44.125 56.529 44.0732 56.772 43.9725C57.0149 43.8719 57.2357 43.7244 57.4216 43.5384C57.6076 43.3525 57.7551 43.1317 57.8557 42.8888C57.9564 42.6458 58.0082 42.3854 58.0082 42.1224C58.0082 41.8595 57.9564 41.5991 57.8557 41.3561C57.7551 41.1131 57.6076 40.8924 57.4216 40.7064L54.3817 37.6704C55.6897 35.3624 55.8897 34.7584 57.2417 32.1224H78.0016V60.1224H18.7456C20.1643 56.5765 22.6139 53.5376 25.7778 51.3983C28.9417 49.2591 32.6744 48.118 36.4937 48.1224ZM76.0017 68.1224H65.6576C64.3937 68.1224 63.9417 67.0864 62.8297 66.1224C62.0673 65.3961 61.0546 64.991 60.0017 64.991C58.9487 64.991 57.9361 65.3961 57.1737 66.1224C56.0577 67.0904 55.6057 68.1224 54.3457 68.1224H20.0017C19.4712 68.1224 18.9625 67.9117 18.5874 67.5366C18.2124 67.1616 18.0017 66.6529 18.0017 66.1224V64.1224H78.0016V66.1224C78.0016 66.6529 77.7909 67.1616 77.4159 67.5366C77.0408 67.9117 76.5321 68.1224 76.0017 68.1224Z" fill="white"/>
</svg>
