<svg width="65" height="65" viewBox="0 0 65 65" fill="none" xmlns="http://www.w3.org/2000/svg">
<path d="M50.5527 50.0513C52.1713 50.0513 53.8027 49.7085 55.1357 48.7374C56.6718 47.6202 57.9033 46.0142 58.2461 44.1036C58.4873 42.7452 58.4111 41.3614 58.4111 39.9903C58.4111 36.8545 58.4301 33.7124 58.4111 30.5704C58.4047 29.085 57.9795 27.5298 57.0971 26.3238C55.9863 24.8003 54.3994 23.5752 52.5078 23.2261C51.7778 23.0865 51.0288 23.0166 50.2861 23.0547C49.1689 23.1119 48.1977 23.3848 47.1948 23.8545C45.4428 24.6734 44.205 26.2603 43.5131 28.0186C42.9545 29.4341 43.0625 31.0083 43.0625 32.5C43.0625 34.379 43.0625 36.2642 43.0625 38.1431C43.0625 39.5523 43.0625 40.9615 43.0625 42.3707C43.0625 43.6338 43.3354 44.7764 43.8686 45.9126C44.6811 47.6646 46.2744 48.9024 48.0327 49.5943C48.8261 49.9117 49.7021 50.045 50.5527 50.0513C51.8794 50.064 53.1552 48.877 53.0918 47.5123C53.0283 46.1285 51.9746 44.9859 50.5527 44.9732C50.3178 44.9732 50.0893 44.9541 49.8545 44.9224C50.0766 44.9541 50.3051 44.9859 50.5273 45.0113C50.102 44.9478 49.6958 44.8335 49.3022 44.6685C49.5053 44.751 49.7085 44.8399 49.9116 44.9224C49.5244 44.7574 49.1689 44.5479 48.8325 44.294C49.0039 44.4273 49.1753 44.5606 49.3466 44.6939C48.9975 44.4209 48.6865 44.1099 48.4135 43.7608C48.5468 43.9322 48.6801 44.1036 48.8134 44.275C48.5595 43.9385 48.3501 43.5831 48.185 43.1958C48.2675 43.399 48.3564 43.6021 48.4389 43.8052C48.2739 43.4117 48.1596 43.0054 48.0961 42.5801C48.1279 42.8023 48.1596 43.0308 48.185 43.253C48.1088 42.688 48.1342 42.1104 48.1342 41.5391C48.1342 40.5552 48.1342 39.5777 48.1342 38.5938C48.1342 36.334 48.1342 34.0806 48.1342 31.8208C48.1342 31.1607 48.0961 30.4878 48.185 29.834C48.1533 30.0562 48.1215 30.2847 48.0961 30.5069C48.1596 30.0816 48.2739 29.6753 48.4389 29.2818C48.3564 29.4849 48.2675 29.688 48.185 29.8912C48.3501 29.504 48.5595 29.1485 48.8134 28.8121C48.6801 28.9834 48.5468 29.1548 48.4135 29.3262C48.6865 28.9771 48.9975 28.6661 49.3466 28.3931C49.1753 28.5264 49.0039 28.6597 48.8325 28.793C49.1689 28.5391 49.5244 28.3296 49.9116 28.1646C49.7085 28.2471 49.5053 28.336 49.3022 28.4185C49.6958 28.2535 50.102 28.1392 50.5273 28.0757C50.3051 28.1075 50.0766 28.1392 49.8545 28.1646C50.4321 28.0884 51.0415 28.0884 51.6191 28.1646C51.3969 28.1329 51.1684 28.1011 50.9462 28.0757C51.3715 28.1392 51.7778 28.2535 52.1713 28.4185C51.9682 28.336 51.7651 28.2471 51.562 28.1646C51.9492 28.3296 52.3046 28.5391 52.6411 28.793C52.4697 28.6597 52.2983 28.5264 52.1269 28.3931C52.476 28.6661 52.7871 28.9771 53.06 29.3262C52.9267 29.1548 52.7934 28.9834 52.6601 28.8121C52.914 29.1485 53.1235 29.504 53.2885 29.8912C53.206 29.688 53.1171 29.4849 53.0346 29.2818C53.1997 29.6753 53.3139 30.0816 53.3774 30.5069C53.3457 30.2847 53.3139 30.0562 53.2885 29.834C53.3647 30.399 53.3393 30.9766 53.3393 31.5479C53.3393 32.5318 53.3393 33.5093 53.3393 34.4932C53.3393 36.753 53.3393 39.0064 53.3393 41.2662C53.3393 41.9263 53.3774 42.5992 53.2885 43.253C53.3203 43.0308 53.352 42.8023 53.3774 42.5801C53.3139 43.0054 53.1997 43.4117 53.0346 43.8052C53.1171 43.6021 53.206 43.399 53.2885 43.1958C53.1235 43.5831 52.914 43.9385 52.6601 44.275C52.7934 44.1036 52.9267 43.9322 53.06 43.7608C52.7871 44.1099 52.476 44.4209 52.1269 44.6939C52.2983 44.5606 52.4697 44.4273 52.6411 44.294C52.3046 44.5479 51.9492 44.7574 51.562 44.9224C51.7651 44.8399 51.9682 44.751 52.1713 44.6685C51.7778 44.8335 51.3715 44.9478 50.9462 45.0113C51.1684 44.9795 51.3969 44.9478 51.6191 44.9224C51.2636 44.9668 50.9082 44.9732 50.5527 44.9732C49.226 44.9732 47.9502 46.1412 48.0136 47.5123C48.0771 48.8897 49.1308 50.0513 50.5527 50.0513ZM14.0791 50.0513C15.6977 50.0513 17.3291 49.7085 18.6621 48.7374C20.1982 47.6202 21.4296 46.0142 21.7724 44.1036C22.0136 42.7452 21.9375 41.3614 21.9375 39.9903C21.9375 36.8545 21.9565 33.7124 21.9375 30.5704C21.9311 29.085 21.5058 27.5298 20.6235 26.3238C19.5127 24.8003 17.9257 23.5752 16.0341 23.2261C15.3042 23.0865 14.5551 23.0166 13.8125 23.0547C12.6953 23.1119 11.7241 23.3848 10.7211 23.8545C8.9692 24.6734 7.7314 26.2603 7.03951 28.0186C6.48092 29.4341 6.58883 31.0083 6.58883 32.5C6.58883 34.379 6.58883 36.2642 6.58883 38.1431C6.58883 39.5523 6.58883 40.9615 6.58883 42.3707C6.58883 43.6338 6.86177 44.7764 7.39498 45.9126C8.20748 47.6646 9.80074 48.9024 11.559 49.5943C12.3525 49.9117 13.2285 50.045 14.0791 50.0513C15.4057 50.064 16.6816 48.877 16.6181 47.5123C16.5546 46.1285 15.5009 44.9859 14.0791 44.9732C13.8442 44.9732 13.6157 44.9541 13.3808 44.9224C13.603 44.9541 13.8315 44.9859 14.0537 45.0113C13.6284 44.9478 13.2221 44.8335 12.8286 44.6685C13.0317 44.751 13.2348 44.8399 13.4379 44.9224C13.0507 44.7574 12.6953 44.5479 12.3588 44.294C12.5302 44.4273 12.7016 44.5606 12.873 44.6939C12.5239 44.4209 12.2128 44.1099 11.9399 43.7608C12.0732 43.9322 12.2065 44.1036 12.3398 44.275C12.0859 43.9385 11.8764 43.5831 11.7114 43.1958C11.7939 43.399 11.8828 43.6021 11.9653 43.8052C11.8003 43.4117 11.686 43.0054 11.6225 42.5801C11.6543 42.8023 11.686 43.0308 11.7114 43.253C11.6352 42.688 11.6606 42.1104 11.6606 41.5391C11.6606 40.5552 11.6606 39.5777 11.6606 38.5938C11.6606 36.334 11.6606 34.0806 11.6606 31.8208C11.6606 31.1607 11.6225 30.4878 11.7114 29.834C11.6796 30.0562 11.6479 30.2847 11.6225 30.5069C11.686 30.0816 11.8003 29.6753 11.9653 29.2818C11.8828 29.4849 11.7939 29.688 11.7114 29.8912C11.8764 29.504 12.0859 29.1485 12.3398 28.8121C12.2065 28.9834 12.0732 29.1548 11.9399 29.3262C12.2128 28.9771 12.5239 28.6661 12.873 28.3931C12.7016 28.5264 12.5302 28.6597 12.3588 28.793C12.6953 28.5391 13.0507 28.3296 13.4379 28.1646C13.2348 28.2471 13.0317 28.336 12.8286 28.4185C13.2221 28.2535 13.6284 28.1392 14.0537 28.0757C13.8315 28.1075 13.603 28.1392 13.3808 28.1646C13.9585 28.0884 14.5678 28.0884 15.1455 28.1646C14.9233 28.1329 14.6948 28.1011 14.4726 28.0757C14.8979 28.1392 15.3042 28.2535 15.6977 28.4185C15.4946 28.336 15.2915 28.2471 15.0883 28.1646C15.4755 28.3296 15.831 28.5391 16.1674 28.793C15.9961 28.6597 15.8247 28.5264 15.6533 28.3931C16.0024 28.6661 16.3134 28.9771 16.5864 29.3262C16.4531 29.1548 16.3198 28.9834 16.1865 28.8121C16.4404 29.1485 16.6499 29.504 16.8149 29.8912C16.7324 29.688 16.6435 29.4849 16.561 29.2818C16.726 29.6753 16.8403 30.0816 16.9038 30.5069C16.872 30.2847 16.8403 30.0562 16.8149 29.834C16.8911 30.399 16.8657 30.9766 16.8657 31.5479C16.8657 32.5318 16.8657 33.5093 16.8657 34.4932C16.8657 36.753 16.8657 39.0064 16.8657 41.2662C16.8657 41.9263 16.9038 42.5992 16.8149 43.253C16.8466 43.0308 16.8784 42.8023 16.9038 42.5801C16.8403 43.0054 16.726 43.4117 16.561 43.8052C16.6435 43.6021 16.7324 43.399 16.8149 43.1958C16.6499 43.5831 16.4404 43.9385 16.1865 44.275C16.3198 44.1036 16.4531 43.9322 16.5864 43.7608C16.3134 44.1099 16.0024 44.4209 15.6533 44.6939C15.8247 44.5606 15.9961 44.4273 16.1674 44.294C15.831 44.5479 15.4755 44.7574 15.0883 44.9224C15.2915 44.8399 15.4946 44.751 15.6977 44.6685C15.3042 44.8335 14.8979 44.9478 14.4726 45.0113C14.6948 44.9795 14.9233 44.9478 15.1455 44.9224C14.79 44.9668 14.4345 44.9732 14.0791 44.9732C12.7524 44.9732 11.4765 46.1412 11.54 47.5123C11.5971 48.8897 12.6572 50.0513 14.0791 50.0513Z" fill="#393D46"/>
<path d="M11.667 42.3771C11.667 40.4221 11.667 38.467 11.667 36.5119C11.667 33.8014 11.667 31.091 11.667 28.3805C11.667 27.0729 11.6987 25.7717 11.8701 24.4767C11.8384 24.6989 11.8066 24.9274 11.7813 25.1496C12.0605 23.1056 12.6064 21.1061 13.4063 19.2018C13.3237 19.405 13.2349 19.6081 13.1523 19.8112C13.9458 17.9513 14.9678 16.1994 16.2056 14.5998C16.0723 14.7712 15.939 14.9426 15.8057 15.1139C17.0371 13.527 18.4653 12.0988 20.0522 10.8674C19.8809 11.0007 19.7095 11.134 19.5381 11.2673C21.1377 10.0358 22.8897 9.0075 24.7495 8.21404C24.5464 8.29656 24.3433 8.38543 24.1401 8.46795C26.0444 7.66814 28.044 7.12224 30.0879 6.84295C29.8657 6.87469 29.6372 6.90642 29.415 6.93182C31.4653 6.66521 33.541 6.66521 35.5913 6.93182C35.3691 6.90008 35.1406 6.86834 34.9185 6.84295C36.9624 7.12224 38.9619 7.66814 40.8662 8.46795C40.6631 8.38543 40.46 8.29656 40.2568 8.21404C42.1167 9.0075 43.8687 10.0295 45.4683 11.2673C45.2969 11.134 45.1255 11.0007 44.9541 10.8674C46.541 12.0988 47.9692 13.527 49.2007 15.1139C49.0674 14.9426 48.9341 14.7712 48.8008 14.5998C50.0322 16.1994 51.0606 17.9513 51.854 19.8112C51.7715 19.6081 51.6826 19.405 51.6001 19.2018C52.3999 21.1061 52.9458 23.1056 53.2251 25.1496C53.1934 24.9274 53.1616 24.6989 53.1362 24.4767C53.314 25.8224 53.3394 27.1681 53.3394 28.5202C53.3394 29.9865 53.3394 31.4465 53.3394 32.9128C53.3394 36.5627 53.3394 40.2126 53.3394 43.8625C53.3394 45.0368 53.3901 46.2302 53.2378 47.3981C53.2695 47.176 53.3013 46.9474 53.3267 46.7253C53.1934 47.6901 52.9395 48.6296 52.565 49.5246C52.6475 49.3215 52.7363 49.1183 52.8189 48.9152C52.438 49.8166 51.9429 50.6608 51.3399 51.4416C51.4732 51.2702 51.6065 51.0988 51.7398 50.9274C51.1558 51.6764 50.4893 52.3429 49.7402 52.9269C49.9116 52.7936 50.083 52.6603 50.2544 52.527C49.48 53.1237 48.6294 53.6188 47.728 54.006C47.9312 53.9235 48.1343 53.8346 48.3374 53.7521C47.436 54.1266 46.5029 54.3805 45.5381 54.5138C45.7603 54.4821 45.9888 54.4504 46.2109 54.425C45.2271 54.5519 44.2368 54.5265 43.2466 54.5265C42.0151 54.5265 40.7837 54.5265 39.5523 54.5265C39.2412 54.5265 38.9365 54.5265 38.6255 54.5265C37.2988 54.5265 36.023 55.6945 36.0864 57.0656C36.1499 58.443 37.2036 59.6047 38.6255 59.6047C40.187 59.6047 41.7422 59.6047 43.3037 59.6047C43.8941 59.6047 44.4844 59.6174 45.0747 59.5983C46.9092 59.5412 48.6167 59.1096 50.2925 58.3923C53.1172 57.1799 55.5674 54.8503 56.9258 52.0954C57.7383 50.445 58.2017 48.7565 58.3731 46.9221C58.4175 46.4523 58.4175 45.9826 58.4175 45.5065C58.4175 42.2248 58.4175 38.943 58.4175 35.6613C58.4175 32.9636 58.4238 30.2658 58.4175 27.568C58.4111 24.6291 57.9224 21.6393 56.9067 18.8781C55.815 15.9074 54.2534 13.2287 52.2222 10.8039C48.4326 6.28435 42.9356 3.07244 37.1275 2.07586C33.8965 1.51726 30.6719 1.53631 27.4536 2.15203C24.5273 2.71062 21.6582 3.84685 19.1128 5.39568C13.9014 8.57586 9.95313 13.5207 7.95996 19.278C7.03955 21.9313 6.59521 24.7814 6.58887 27.5871C6.58887 28.6789 6.58887 29.7643 6.58887 30.8561C6.58887 34.4426 6.58887 38.0353 6.58887 41.6218C6.58887 41.8757 6.58887 42.1232 6.58887 42.3771C6.58887 43.7038 7.75684 44.9797 9.12793 44.9162C10.499 44.8527 11.667 43.799 11.667 42.3771Z" fill="#393D46"/>
<path d="M36.0864 57.0591C36.0864 57.2368 36.0737 57.4146 36.0483 57.5859C36.0801 57.3638 36.1118 57.1353 36.1372 56.9131C36.0864 57.2241 36.0039 57.5288 35.8896 57.8208C35.9722 57.6177 36.061 57.4145 36.1435 57.2114C36.0102 57.5225 35.8389 57.8081 35.6357 58.0811C35.769 57.9097 35.9023 57.7383 36.0356 57.5669C35.8452 57.8081 35.6294 58.0239 35.3882 58.2144C35.5596 58.0811 35.7309 57.9478 35.9023 57.8145C35.6357 58.0176 35.3437 58.189 35.0327 58.3223C35.2358 58.2397 35.439 58.1509 35.6421 58.0684C35.3501 58.189 35.0454 58.2715 34.7344 58.3159C34.9565 58.2842 35.1851 58.2524 35.4072 58.2271C34.5757 58.335 33.706 58.2651 32.8682 58.2651C32.0176 58.2651 31.1353 58.335 30.291 58.2334C30.5132 58.2651 30.7417 58.2969 30.9639 58.3223C30.6338 58.2715 30.3228 58.189 30.0117 58.062C30.2148 58.1445 30.418 58.2334 30.6211 58.3159C30.3228 58.1826 30.0498 58.0239 29.7896 57.8271C29.9609 57.9604 30.1323 58.0937 30.3037 58.2271C30.0498 58.0239 29.8276 57.8018 29.6245 57.5479C29.7578 57.7192 29.8911 57.8906 30.0244 58.062C29.8276 57.8018 29.6689 57.5288 29.5356 57.2305C29.6182 57.4336 29.707 57.6367 29.7896 57.8398C29.6626 57.5352 29.5801 57.2178 29.5293 56.8877C29.561 57.1099 29.5928 57.3384 29.6182 57.5605C29.5737 57.2114 29.5737 56.8687 29.6182 56.5259C29.5864 56.748 29.5547 56.9766 29.5293 57.1987C29.5801 56.8877 29.6626 56.583 29.7769 56.291C29.6943 56.4941 29.6055 56.6973 29.523 56.9004C29.6563 56.5894 29.8276 56.3037 30.0308 56.0308C29.8975 56.2021 29.7642 56.3735 29.6309 56.5449C29.8213 56.3037 30.0371 56.0879 30.2783 55.8975C30.1069 56.0308 29.9355 56.1641 29.7642 56.2974C30.0308 56.0942 30.3228 55.9229 30.6338 55.7896C30.4307 55.8721 30.2275 55.9609 30.0244 56.0435C30.3164 55.9229 30.6211 55.8403 30.9321 55.7959C30.71 55.8276 30.4814 55.8594 30.2593 55.8848C31.0908 55.7769 31.9604 55.8467 32.7983 55.8467C33.6489 55.8467 34.5312 55.7769 35.3755 55.8784C35.1533 55.8467 34.9248 55.8149 34.7026 55.7896C35.0327 55.8403 35.3437 55.9229 35.6548 56.0498C35.4517 55.9673 35.2485 55.8784 35.0454 55.7959C35.3437 55.9292 35.6167 56.0879 35.8769 56.2847C35.7056 56.1514 35.5342 56.0181 35.3628 55.8848C35.6167 56.0879 35.8389 56.3101 36.042 56.564C35.9087 56.3926 35.7754 56.2212 35.6421 56.0498C35.8389 56.3101 35.9976 56.583 36.1309 56.8813C36.0483 56.6782 35.9595 56.4751 35.8769 56.272C36.0039 56.5767 36.0864 56.894 36.1372 57.2241C36.1055 57.002 36.0737 56.7734 36.0483 56.5513C36.0737 56.7227 36.0801 56.8877 36.0864 57.0591C36.0928 57.7129 36.3657 58.3857 36.8291 58.8555C37.2671 59.2935 37.9907 59.6299 38.6255 59.5981C39.9839 59.5347 41.1836 58.481 41.1645 57.0591C41.1518 55.9038 40.8408 54.6978 40.1997 53.7202C39.5967 52.8062 38.7778 51.9746 37.7876 51.4858C36.8545 51.0288 35.9023 50.7749 34.8486 50.7622C34.5947 50.7622 34.3472 50.7622 34.0933 50.7622C33.1855 50.7622 32.2715 50.7622 31.3638 50.7622C31.1733 50.7622 30.9766 50.7622 30.7861 50.7622C29.7197 50.7749 28.7041 51.0415 27.7583 51.543C26.8442 52.0254 26.1333 52.7681 25.5366 53.5996C24.9209 54.4629 24.6607 55.4849 24.5274 56.5259C24.3877 57.6812 24.6797 58.8428 25.1748 59.8838C25.6509 60.8994 26.457 61.6992 27.3711 62.334C28.5264 63.1338 29.9102 63.3496 31.2812 63.3496C32.189 63.3496 33.0903 63.3496 33.998 63.3496C34.2837 63.3496 34.5757 63.3496 34.8613 63.3496C35.9341 63.3369 36.9497 63.0703 37.8955 62.5688C39.9077 61.5024 41.1391 59.2998 41.1645 57.0527C41.1772 55.7261 39.9839 54.4502 38.6255 54.5137C37.2353 54.5835 36.0991 55.6372 36.0864 57.0591Z" fill="#393D46"/>
</svg>
