<svg width="64" height="64" viewBox="0 0 64 64" fill="none" xmlns="http://www.w3.org/2000/svg">
<path d="M57.3876 14C57.3876 15.2063 57.3876 16.4187 57.3876 17.625C57.3876 20.5125 57.3876 23.4 57.3876 26.2812C57.3876 29.7625 57.3876 33.2437 57.3876 36.725C57.3876 39.725 57.3876 42.725 57.3876 45.7188C57.3876 47.1312 57.3938 48.5438 57.3876 49.9562C57.3876 50.0875 57.3813 50.2125 57.3625 50.3438C57.3938 50.125 57.425 49.9 57.4501 49.6813C57.4188 49.9062 57.3625 50.1187 57.2813 50.3312C57.3625 50.1312 57.4501 49.9313 57.5313 49.7313C57.4313 49.9625 57.3125 50.175 57.1625 50.3688C57.2938 50.2 57.4251 50.0312 57.5563 49.8625C57.4188 50.0312 57.2688 50.1875 57.0938 50.325C57.2626 50.1938 57.4313 50.0625 57.6 49.9313C57.4 50.0813 57.1875 50.2062 56.9626 50.3C57.1626 50.2188 57.3625 50.1312 57.5625 50.05C57.35 50.1312 57.1375 50.1875 56.9125 50.2188C57.1313 50.1875 57.3563 50.1562 57.5751 50.1312C57.0438 50.1937 56.4875 50.1562 55.9501 50.1562C54.7375 50.1562 53.5188 50.1562 52.3063 50.1562C50.4938 50.1562 48.6813 50.1562 46.8688 50.1562C44.6501 50.1562 42.4313 50.1562 40.2126 50.1562C37.7813 50.1562 35.3438 50.1562 32.9125 50.1562C30.4563 50.1562 28 50.1562 25.5375 50.1562C23.25 50.1562 20.9563 50.1562 18.6688 50.1562C16.7376 50.1562 14.8125 50.1562 12.8813 50.1562C11.5 50.1562 10.125 50.1562 8.7438 50.1562C8.1063 50.1562 7.47505 50.1562 6.83755 50.1562C6.70005 50.1562 6.56255 50.15 6.42505 50.1312C6.6438 50.1625 6.8688 50.1937 7.08755 50.2188C6.86255 50.1875 6.65005 50.1312 6.43755 50.05C6.63755 50.1312 6.83755 50.2188 7.03755 50.3C6.8063 50.2 6.5938 50.0813 6.40005 49.9313C6.5688 50.0625 6.73755 50.1938 6.9063 50.325C6.73755 50.1875 6.5813 50.0375 6.4438 49.8625C6.57505 50.0312 6.7063 50.2 6.83755 50.3688C6.68755 50.1688 6.56255 49.9562 6.4688 49.7313C6.55005 49.9313 6.63755 50.1312 6.7188 50.3312C6.63755 50.1187 6.5813 49.9062 6.55005 49.6813C6.5813 49.9 6.61255 50.125 6.63755 50.3438C6.5938 49.9313 6.61255 49.5125 6.61255 49.1C6.61255 48.2312 6.61255 47.3625 6.61255 46.4938C6.61255 43.6188 6.61255 40.7438 6.61255 37.8688C6.61255 34.3813 6.61255 30.8875 6.61255 27.4C6.61255 24.375 6.61255 21.35 6.61255 18.325C6.61255 16.9 6.6063 15.475 6.61255 14.0437C6.61255 13.9125 6.6188 13.7875 6.63755 13.6562C6.6063 13.875 6.57505 14.1 6.55005 14.3188C6.5813 14.0938 6.63755 13.8812 6.7188 13.6687C6.63755 13.8687 6.55005 14.0688 6.4688 14.2688C6.5688 14.0375 6.68755 13.825 6.83755 13.6313C6.7063 13.8 6.57505 13.9688 6.4438 14.1375C6.5813 13.9688 6.7313 13.8125 6.9063 13.675C6.73755 13.8063 6.5688 13.9375 6.40005 14.0688C6.60005 13.9188 6.81255 13.7937 7.03755 13.7C6.83755 13.7812 6.63755 13.8687 6.43755 13.95C6.65005 13.8687 6.86255 13.8125 7.08755 13.7812C6.8688 13.8125 6.6438 13.8437 6.42505 13.8687C6.9563 13.8062 7.51255 13.8438 8.05005 13.8438C9.26255 13.8438 10.4813 13.8438 11.6938 13.8438C13.5063 13.8438 15.3188 13.8438 17.1313 13.8438C19.35 13.8438 21.5688 13.8438 23.7875 13.8438C26.2188 13.8438 28.6563 13.8438 31.0875 13.8438C33.5438 13.8438 36 13.8438 38.4626 13.8438C40.75 13.8438 43.0438 13.8438 45.3313 13.8438C47.2626 13.8438 49.1875 13.8438 51.1188 13.8438C52.5 13.8438 53.875 13.8438 55.2563 13.8438C55.8938 13.8438 56.525 13.8438 57.1625 13.8438C57.3 13.8438 57.4375 13.85 57.5751 13.8687C57.3563 13.8375 57.1313 13.8063 56.9125 13.7812C57.1375 13.8125 57.35 13.8687 57.5625 13.95C57.3625 13.8687 57.1626 13.7812 56.9626 13.7C57.1938 13.8 57.4063 13.9188 57.6 14.0688C57.4313 13.9375 57.2626 13.8063 57.0938 13.675C57.2626 13.8125 57.4188 13.9625 57.5563 14.1375C57.4251 13.9688 57.2938 13.8 57.1625 13.6313C57.3125 13.8313 57.4375 14.0438 57.5313 14.2688C57.4501 14.0688 57.3625 13.8687 57.2813 13.6687C57.3625 13.8812 57.4188 14.0938 57.4501 14.3188C57.4188 14.1 57.3876 13.875 57.3625 13.6562C57.3813 13.7688 57.3876 13.8812 57.3876 14C57.4001 14.65 57.6563 15.3063 58.1188 15.7688C58.5501 16.2 59.2626 16.5312 59.8876 16.5C61.2251 16.4375 62.4126 15.4 62.3876 14C62.3688 12.65 61.8563 11.3938 60.9313 10.4063C60.0126 9.43125 58.7563 8.95 57.4438 8.84375C57.2875 8.83125 57.125 8.8375 56.9626 8.8375C56.2688 8.8375 55.5751 8.8375 54.8876 8.8375C53.6125 8.8375 52.3313 8.8375 51.0563 8.8375C49.3376 8.8375 47.6125 8.8375 45.8938 8.8375C43.8813 8.8375 41.8625 8.8375 39.85 8.8375C37.6625 8.8375 35.4688 8.8375 33.2813 8.8375C31.0625 8.8375 28.85 8.8375 26.6313 8.8375C24.5375 8.8375 22.4438 8.8375 20.35 8.8375C18.4938 8.8375 16.6438 8.8375 14.7875 8.8375C13.3313 8.8375 11.8688 8.8375 10.4125 8.8375C9.47505 8.8375 8.53755 8.8375 7.60005 8.8375C7.37505 8.8375 7.15005 8.8375 6.9188 8.8375C6.03755 8.8375 5.2313 9.0375 4.4313 9.40625C3.47505 9.84375 2.58755 10.7438 2.1563 11.7C1.81255 12.4625 1.61255 13.1688 1.6063 14.0188C1.6063 14.2063 1.6063 14.3937 1.6063 14.5875C1.6063 15.6312 1.6063 16.6813 1.6063 17.725C1.6063 19.4313 1.6063 21.1375 1.6063 22.85C1.6063 24.9375 1.6063 27.025 1.6063 29.1125C1.6063 31.325 1.6063 33.5437 1.6063 35.7562C1.6063 37.8187 1.6063 39.875 1.6063 41.9375C1.6063 43.5625 1.6063 45.1937 1.6063 46.8187C1.6063 47.7562 1.6063 48.6938 1.6063 49.6375C1.6063 49.8188 1.60005 50 1.61255 50.1813C1.70005 51.5 2.18755 52.75 3.15005 53.6813C4.11255 54.6125 5.38755 55.1375 6.72505 55.1625C7.1063 55.1687 7.4813 55.1625 7.86255 55.1625C8.87505 55.1625 9.88755 55.1625 10.9063 55.1625C12.4313 55.1625 13.9563 55.1625 15.4813 55.1625C17.3688 55.1625 19.2563 55.1625 21.1438 55.1625C23.2688 55.1625 25.4 55.1625 27.525 55.1625C29.7375 55.1625 31.9438 55.1625 34.1563 55.1625C36.3313 55.1625 38.5063 55.1625 40.6875 55.1625C42.6813 55.1625 44.6688 55.1625 46.6625 55.1625C48.325 55.1625 49.9876 55.1625 51.6501 55.1625C52.8563 55.1625 54.0688 55.1625 55.2751 55.1625C55.8813 55.1625 56.4875 55.1625 57.1 55.1625C58.025 55.1625 58.9001 54.95 59.7188 54.525C61.3876 53.6625 62.375 51.8125 62.3938 49.975C62.4 49.3438 62.3938 48.7188 62.3938 48.0875C62.3938 46.6625 62.3938 45.2437 62.3938 43.8187C62.3938 41.8875 62.3938 39.95 62.3938 38.0187C62.3938 35.825 62.3938 33.6375 62.3938 31.4438C62.3938 29.275 62.3938 27.1063 62.3938 24.9375C62.3938 23.0688 62.3938 21.2062 62.3938 19.3375C62.3938 18.0312 62.3938 16.7188 62.3938 15.4125C62.3938 14.9438 62.3938 14.475 62.3938 14C62.3938 12.6937 61.2438 11.4375 59.8938 11.5C58.5375 11.5625 57.3876 12.6 57.3876 14Z" fill="#393D46"/>
<path d="M57.3875 20.8001C57.3875 23.3064 57.3875 25.8126 57.3875 28.3189C57.3875 28.6689 57.3875 29.0189 57.3875 29.3689C58.2187 28.5376 59.0562 27.7001 59.8875 26.8689C59.3875 26.8689 58.8875 26.8689 58.3875 26.8689C57.0375 26.8689 55.6875 26.8689 54.3312 26.8689C52.3312 26.8689 50.3375 26.8689 48.3375 26.8689C45.8937 26.8689 43.4437 26.8689 41 26.8689C38.3312 26.8689 35.6625 26.8689 32.9937 26.8689C30.2875 26.8689 27.5812 26.8689 24.8812 26.8689C22.3687 26.8689 19.8562 26.8689 17.3437 26.8689C15.2125 26.8689 13.0812 26.8689 10.95 26.8689C9.42495 26.8689 7.89995 26.8689 6.3687 26.8689C5.6437 26.8689 4.9187 26.8564 4.19995 26.8689C4.1687 26.8689 4.13745 26.8689 4.1062 26.8689C4.93745 27.7001 5.77495 28.5376 6.6062 29.3689C6.6062 26.8626 6.6062 24.3564 6.6062 21.8501C6.6062 21.5001 6.6062 21.1501 6.6062 20.8001C5.77495 21.6314 4.93745 22.4689 4.1062 23.3001C4.6062 23.3001 5.1062 23.3001 5.6062 23.3001C6.9562 23.3001 8.3062 23.3001 9.66245 23.3001C11.6625 23.3001 13.6562 23.3001 15.6562 23.3001C18.1 23.3001 20.5499 23.3001 22.9937 23.3001C25.6625 23.3001 28.3312 23.3001 31 23.3001C33.7062 23.3001 36.4124 23.3001 39.1124 23.3001C41.625 23.3001 44.1375 23.3001 46.65 23.3001C48.7812 23.3001 50.9125 23.3001 53.0437 23.3001C54.5687 23.3001 56.0937 23.3001 57.625 23.3001C58.3499 23.3001 59.075 23.3064 59.7937 23.3001C59.825 23.3001 59.8562 23.3001 59.8875 23.3001C61.1937 23.3001 62.45 22.1501 62.3875 20.8001C62.325 19.4439 61.2875 18.3001 59.8875 18.3001C59.3875 18.3001 58.8875 18.3001 58.3875 18.3001C57.0375 18.3001 55.6875 18.3001 54.3312 18.3001C52.3312 18.3001 50.3375 18.3001 48.3375 18.3001C45.8937 18.3001 43.4437 18.3001 41 18.3001C38.3312 18.3001 35.6625 18.3001 32.9937 18.3001C30.2875 18.3001 27.5812 18.3001 24.8812 18.3001C22.3687 18.3001 19.8562 18.3001 17.3437 18.3001C15.2125 18.3001 13.0812 18.3001 10.95 18.3001C9.42495 18.3001 7.89995 18.3001 6.3687 18.3001C5.6437 18.3001 4.9187 18.2939 4.19995 18.3001C4.1687 18.3001 4.13745 18.3001 4.1062 18.3001C2.7562 18.3001 1.6062 19.4439 1.6062 20.8001C1.6062 23.3064 1.6062 25.8126 1.6062 28.3189C1.6062 28.6689 1.6062 29.0189 1.6062 29.3689C1.6062 30.7189 2.74995 31.8689 4.1062 31.8689C4.6062 31.8689 5.1062 31.8689 5.6062 31.8689C6.9562 31.8689 8.3062 31.8689 9.66245 31.8689C11.6625 31.8689 13.6562 31.8689 15.6562 31.8689C18.1 31.8689 20.5499 31.8689 22.9937 31.8689C25.6625 31.8689 28.3312 31.8689 31 31.8689C33.7062 31.8689 36.4124 31.8689 39.1124 31.8689C41.625 31.8689 44.1375 31.8689 46.65 31.8689C48.7812 31.8689 50.9125 31.8689 53.0437 31.8689C54.5687 31.8689 56.0937 31.8689 57.625 31.8689C58.3499 31.8689 59.075 31.8751 59.7937 31.8689C59.825 31.8689 59.8562 31.8689 59.8875 31.8689C61.2374 31.8689 62.3875 30.7251 62.3875 29.3689C62.3875 26.8626 62.3875 24.3564 62.3875 21.8501C62.3875 21.5001 62.3875 21.1501 62.3875 20.8001C62.3875 19.4939 61.2374 18.2376 59.8875 18.3001C58.5375 18.3564 57.3875 19.3939 57.3875 20.8001ZM13.1625 43.2876C14.9062 43.2876 16.65 43.2876 18.3937 43.2876C21.1624 43.2876 23.9312 43.2876 26.7 43.2876C27.3375 43.2876 27.975 43.2876 28.6062 43.2876C29.9125 43.2876 31.1687 42.1376 31.1062 40.7876C31.0437 39.4314 30.0062 38.2876 28.6062 38.2876C26.8625 38.2876 25.1187 38.2876 23.375 38.2876C20.6062 38.2876 17.8375 38.2876 15.0687 38.2876C14.4312 38.2876 13.7937 38.2876 13.1625 38.2876C11.8562 38.2876 10.6 39.4376 10.6625 40.7876C10.7187 42.1439 11.7562 43.2876 13.1625 43.2876Z" fill="#393D46"/>
</svg>
