<svg width="65" height="65" viewBox="0 0 65 65" fill="none" xmlns="http://www.w3.org/2000/svg">
<path d="M36.9434 16.6182C36.9434 17.5704 36.9434 18.5225 36.9434 19.4747C36.9434 21.7598 36.9434 24.045 36.9434 26.3365C36.9434 29.0914 36.9434 31.8462 36.9434 34.6011C36.9434 36.9878 36.9434 39.3809 36.9434 41.7676C36.9434 42.9229 36.918 44.0845 36.9434 45.2398C36.9434 45.2588 36.9434 45.2715 36.9434 45.2906C37.7876 44.4463 38.6382 43.5958 39.4824 42.7515C37.3496 42.7515 35.2168 42.7515 33.084 42.7515C29.6753 42.7515 26.2603 42.7515 22.8516 42.7515C22.0708 42.7515 21.2901 42.7515 20.5156 42.7515C21.3599 43.5958 22.2105 44.4463 23.0547 45.2906C23.042 43.7989 22.6167 42.2247 21.7407 41.0059C21.1694 40.2125 20.5982 39.6348 19.8237 39.0508C19.2207 38.5938 18.5415 38.2828 17.8306 38.0225C15.0186 36.9815 11.521 37.94 9.59766 40.2315C8.39161 41.6724 7.69971 43.399 7.68067 45.2969C8.52491 44.4527 9.37549 43.6021 10.2197 42.7579C9.43897 42.7579 8.66456 42.7579 7.88379 42.7579C7.09034 42.7579 6.26514 42.8277 5.47168 42.7388C5.69385 42.7706 5.92237 42.8023 6.14454 42.8277C5.97315 42.8023 5.80811 42.7579 5.64942 42.7007C5.85254 42.7833 6.05567 42.8721 6.25879 42.9546C6.07471 42.8785 5.90967 42.7833 5.75098 42.6626C5.92237 42.7959 6.09375 42.9293 6.26514 43.0626C6.13184 42.9546 6.01758 42.8404 5.91602 42.7134C6.04932 42.8848 6.18262 43.0562 6.31592 43.2276C6.19532 43.0689 6.1001 42.9039 6.02393 42.7198C6.10645 42.9229 6.19532 43.126 6.27784 43.3292C6.21436 43.1641 6.17627 43.0054 6.15088 42.834C6.18262 43.0562 6.21436 43.2847 6.23975 43.5069C6.20801 43.2022 6.22071 42.8912 6.22071 42.5865C6.22071 41.9517 6.22071 41.3106 6.22071 40.6758C6.22071 38.543 6.22071 36.4039 6.22071 34.2711C6.22071 31.6876 6.22071 29.1041 6.22071 26.5206C6.22071 24.2925 6.22071 22.0645 6.22071 19.8365C6.22071 18.7764 6.20801 17.7164 6.22071 16.6627C6.22071 16.5611 6.22705 16.4659 6.23975 16.3643C6.20801 16.5865 6.17627 16.815 6.15088 17.0372C6.17627 16.8658 6.22071 16.7007 6.27784 16.542C6.19532 16.7452 6.10645 16.9483 6.02393 17.1514C6.1001 16.9673 6.19532 16.8023 6.31592 16.6436C6.18262 16.815 6.04932 16.9864 5.91602 17.1578C6.02393 17.0245 6.13819 16.9102 6.26514 16.8086C6.09375 16.9419 5.92237 17.0753 5.75098 17.2086C5.90967 17.0879 6.07471 16.9927 6.25879 16.9166C6.05567 16.9991 5.85254 17.0879 5.64942 17.1705C5.81446 17.107 5.97315 17.0689 6.14454 17.0435C5.92237 17.0753 5.69385 17.107 5.47168 17.1324C5.8208 17.0943 6.18262 17.1133 6.53809 17.1133C7.29981 17.1133 8.06153 17.1133 8.82325 17.1133C11.3623 17.1133 13.895 17.1133 16.4341 17.1133C19.5 17.1133 22.5659 17.1133 25.6382 17.1133C28.2915 17.1133 30.9448 17.1133 33.5982 17.1133C34.8614 17.1133 36.1245 17.0943 37.3877 17.1133C37.4893 17.1133 37.5908 17.1197 37.6924 17.1324C37.4702 17.1006 37.2417 17.0689 37.0196 17.0435C37.1909 17.0689 37.356 17.1133 37.5147 17.1705C37.3116 17.0879 37.1084 16.9991 36.9053 16.9166C37.0894 16.9927 37.2544 17.0879 37.4131 17.2086C37.2417 17.0753 37.0703 16.9419 36.899 16.8086C37.0323 16.9166 37.1465 17.0308 37.2481 17.1578C37.1148 16.9864 36.9815 16.815 36.8482 16.6436C36.9688 16.8023 37.064 16.9673 37.1402 17.1514C37.0576 16.9483 36.9688 16.7452 36.8863 16.542C36.9497 16.7071 36.9878 16.8658 37.0132 17.0372C36.9815 16.815 36.9497 16.5865 36.9243 16.3643C36.937 16.4405 36.9434 16.5294 36.9434 16.6182C36.9561 17.2784 37.2163 17.9449 37.6861 18.4146C38.1241 18.8526 38.8477 19.189 39.4824 19.1573C40.8345 19.0938 42.0533 18.0401 42.0215 16.6182C41.9961 15.4312 41.5645 14.3775 40.7901 13.4888C40.1997 12.816 39.2539 12.2701 38.3653 12.1304C37.9844 12.0669 37.6099 12.0225 37.2227 12.0225C36.6324 12.0225 36.0357 12.0225 35.4453 12.0225C32.938 12.0225 30.4307 12.0225 27.9234 12.0225C24.6416 12.0225 21.3662 12.0225 18.0845 12.0225C15.2217 12.0225 12.3589 12.0225 9.50245 12.0225C8.25196 12.0225 6.99512 11.9971 5.74463 12.0225C3.70069 12.0606 1.92334 13.3809 1.32666 15.3423C1.18066 15.8121 1.14893 16.3135 1.14893 16.8086C1.14893 17.4625 1.14893 18.1163 1.14893 18.7701C1.14893 21.5059 1.14893 24.2354 1.14893 26.9712C1.14893 30.2022 1.14893 33.4395 1.14893 36.6705C1.14893 38.7271 1.14893 40.7774 1.14893 42.834C1.14893 42.9673 1.14893 43.1006 1.14893 43.2276C1.16162 44.0274 1.3584 44.7193 1.70752 45.4366C2.10107 46.2364 2.88818 46.9854 3.70069 47.3409C4.39893 47.6519 5.05274 47.8296 5.82715 47.836C6.05567 47.836 6.29053 47.836 6.51905 47.836C7.31885 47.836 8.11231 47.836 8.91211 47.836C9.3501 47.836 9.78809 47.836 10.2261 47.836C11.6099 47.836 12.7524 46.6744 12.7651 45.2969C12.7651 45.0621 12.7842 44.8272 12.8159 44.5923C12.7842 44.8145 12.7524 45.043 12.7271 45.2652C12.7905 44.8082 12.9175 44.3702 13.0889 43.9512C13.0064 44.1544 12.9175 44.3575 12.835 44.5606C13.0127 44.148 13.2412 43.7671 13.5142 43.4117C13.3809 43.5831 13.2476 43.7544 13.1143 43.9258C13.3745 43.5958 13.6665 43.3038 13.9966 43.0435C13.8252 43.1768 13.6538 43.3101 13.4824 43.4434C13.8379 43.1705 14.2188 42.9419 14.6314 42.7642C14.4282 42.8467 14.2251 42.9356 14.022 43.0181C14.4473 42.8404 14.8853 42.7198 15.3359 42.6563C15.1138 42.688 14.8853 42.7198 14.6631 42.7452C15.1328 42.6817 15.6025 42.6817 16.0723 42.7452C15.8501 42.7134 15.6216 42.6817 15.3994 42.6563C15.8565 42.7198 16.2944 42.8467 16.7134 43.0181C16.5103 42.9356 16.3071 42.8467 16.104 42.7642C16.5166 42.9419 16.8975 43.1705 17.2529 43.4434C17.0816 43.3101 16.9102 43.1768 16.7388 43.0435C17.0689 43.3038 17.3609 43.5958 17.6211 43.9258C17.4878 43.7544 17.3545 43.5831 17.2212 43.4117C17.4942 43.7671 17.7227 44.148 17.9004 44.5606C17.8179 44.3575 17.729 44.1544 17.6465 43.9512C17.8242 44.3765 17.9448 44.8145 18.0083 45.2652C17.9766 45.043 17.9448 44.8145 17.9194 44.5923C17.9512 44.8272 17.9639 45.0621 17.9702 45.2969C17.9829 46.668 19.1255 47.836 20.5093 47.836C22.6421 47.836 24.7749 47.836 26.9077 47.836C30.3164 47.836 33.7315 47.836 37.1402 47.836C37.9209 47.836 38.7017 47.836 39.4761 47.836C40.8472 47.836 42.0152 46.6744 42.0152 45.2969C42.0152 44.3448 42.0152 43.3926 42.0152 42.4405C42.0152 40.1553 42.0152 37.8702 42.0152 35.5787C42.0152 32.8238 42.0152 30.0689 42.0152 27.314C42.0152 24.9273 42.0152 22.5342 42.0152 20.1475C42.0152 18.9922 42.0342 17.8306 42.0152 16.6753C42.0152 16.6563 42.0152 16.6436 42.0152 16.6246C42.0152 15.2979 40.8472 14.022 39.4761 14.0855C38.105 14.1426 36.9434 15.1963 36.9434 16.6182Z" fill="#393D46"/>
<path d="M58.7729 34.9059C58.7729 37.3752 58.7729 39.8381 58.7729 42.3073C58.7729 42.7008 58.7983 43.1071 58.7539 43.507C58.7856 43.2848 58.8174 43.0563 58.8428 42.8341C58.8174 43.0055 58.7729 43.1706 58.7158 43.3293C58.7983 43.1261 58.8872 42.923 58.9697 42.7199C58.8935 42.904 58.7983 43.069 58.6777 43.2277C58.811 43.0563 58.9443 42.8849 59.0776 42.7135C58.9697 42.8468 58.8555 42.9611 58.7285 43.0627C58.8999 42.9294 59.0713 42.7961 59.2427 42.6628C59.084 42.7834 58.9189 42.8786 58.7349 42.9548C58.938 42.8722 59.1411 42.7834 59.3442 42.7008C59.1792 42.7643 59.0205 42.8024 58.8491 42.8278C59.0713 42.7961 59.2998 42.7643 59.522 42.7389C58.8682 42.8088 58.189 42.758 57.5288 42.758C56.8877 42.758 56.2529 42.758 55.6118 42.758C56.456 43.6022 57.3066 44.4528 58.1509 45.297C58.1382 43.8053 57.7129 42.2311 56.8369 41.0124C56.2656 40.2189 55.6943 39.6413 54.9199 39.0573C54.3169 38.6003 53.6377 38.2892 52.9267 38.029C50.1084 36.988 46.6172 37.9465 44.6938 40.238C43.4878 41.6789 42.7959 43.4054 42.7768 45.3034C43.6211 44.4591 44.4717 43.6086 45.3159 42.7643C43.6147 42.7643 41.9199 42.7643 40.2187 42.7643C39.9712 42.7643 39.7236 42.7643 39.4761 42.7643C40.3203 43.6086 41.1709 44.4591 42.0151 45.3034C42.0151 44.5544 42.0151 43.8117 42.0151 43.0627C42.0151 41.2726 42.0151 39.4762 42.0151 37.6862C42.0151 35.5153 42.0151 33.3507 42.0151 31.1799C42.0151 29.3073 42.0151 27.4284 42.0151 25.5558C42.0151 24.6418 42.0342 23.7277 42.0151 22.8136C42.0151 22.8009 42.0151 22.7882 42.0151 22.7756C41.1709 23.6198 40.3203 24.4704 39.4761 25.3146C40.771 25.3146 42.0659 25.3146 43.3608 25.3146C45.3857 25.3146 47.4106 25.3146 49.4355 25.3146C49.9751 25.3146 50.54 25.2765 51.0732 25.34C50.8511 25.3083 50.6225 25.2765 50.4004 25.2511C50.6289 25.2892 50.8384 25.3464 51.0542 25.4289C50.8511 25.3464 50.6479 25.2575 50.4448 25.175C50.686 25.2765 50.9082 25.4035 51.1113 25.5622C50.9399 25.4289 50.7685 25.2956 50.5972 25.1623C51.0161 25.4987 51.3462 25.9621 51.689 26.3683C52.3047 27.1047 52.9204 27.841 53.5425 28.5773C54.9834 30.2975 56.4243 32.0241 57.8716 33.7443C58.2207 34.1632 58.5762 34.5758 58.9189 34.9948C58.7856 34.8234 58.6523 34.652 58.519 34.4806C58.665 34.6774 58.7793 34.8742 58.8808 35.0964C58.7983 34.8932 58.7095 34.6901 58.6269 34.487C58.7158 34.7091 58.7793 34.9313 58.8174 35.1725C58.7856 34.9504 58.7539 34.7218 58.7285 34.4997C58.7602 34.633 58.7729 34.7663 58.7729 34.9059C58.7856 35.5661 59.0459 36.2326 59.5156 36.7023C59.9536 37.1403 60.6772 37.4767 61.312 37.445C62.6641 37.3815 63.8765 36.3278 63.8511 34.9059C63.832 33.9919 63.6099 33.154 63.1909 32.3415C62.9941 31.9606 62.7085 31.6242 62.4355 31.2941C62.3213 31.1608 62.2134 31.0275 62.0991 30.8942C61.5469 30.234 60.9883 29.5675 60.436 28.9074C58.938 27.1173 57.4336 25.321 55.9355 23.5309C55.5229 23.0358 55.1103 22.5407 54.6977 22.0519C53.6885 20.8522 52.146 20.2301 50.5972 20.2301C48.7627 20.2238 46.9219 20.2301 45.0874 20.2301C43.2529 20.2301 41.4121 20.2111 39.5776 20.2301C39.5459 20.2301 39.5142 20.2301 39.4824 20.2301C38.1113 20.2301 36.9434 21.3918 36.9434 22.7692C36.9434 23.5182 36.9434 24.2609 36.9434 25.0099C36.9434 26.8 36.9434 28.5964 36.9434 30.3864C36.9434 32.5573 36.9434 34.7218 36.9434 36.8927C36.9434 38.7653 36.9434 40.6442 36.9434 42.5168C36.9434 43.4308 36.9307 44.3449 36.9434 45.259C36.9434 45.2716 36.9434 45.2843 36.9434 45.297C36.9434 46.6681 38.105 47.8361 39.4824 47.8361C41.1836 47.8361 42.8784 47.8361 44.5796 47.8361C44.8271 47.8361 45.0747 47.8361 45.3223 47.8361C46.706 47.8361 47.8486 46.6745 47.8613 45.297C47.8613 45.0622 47.8804 44.8273 47.9121 44.5924C47.8804 44.8146 47.8486 45.0431 47.8232 45.2653C47.8867 44.8083 48.0137 44.3703 48.185 43.9513C48.1025 44.1545 48.0137 44.3576 47.9311 44.5607C48.1089 44.1481 48.3374 43.7673 48.6103 43.4118C48.477 43.5832 48.3437 43.7546 48.2104 43.9259C48.4707 43.5959 48.7627 43.3039 49.0928 43.0436C48.9214 43.1769 48.75 43.3102 48.5786 43.4435C48.9341 43.1706 49.3149 42.9421 49.7275 42.7643C49.5244 42.8468 49.3213 42.9357 49.1182 43.0182C49.5434 42.8405 49.9814 42.7199 50.4321 42.6564C50.2099 42.6882 49.9814 42.7199 49.7593 42.7453C50.229 42.6818 50.6987 42.6818 51.1684 42.7453C50.9463 42.7135 50.7178 42.6818 50.4956 42.6564C50.9526 42.7199 51.3906 42.8468 51.8096 43.0182C51.6064 42.9357 51.4033 42.8468 51.2002 42.7643C51.6128 42.9421 51.9936 43.1706 52.3491 43.4435C52.1777 43.3102 52.0063 43.1769 51.8349 43.0436C52.165 43.3039 52.457 43.5959 52.7173 43.9259C52.584 43.7546 52.4507 43.5832 52.3174 43.4118C52.5903 43.7673 52.8188 44.1481 52.9966 44.5607C52.9141 44.3576 52.8252 44.1545 52.7427 43.9513C52.9204 44.3766 53.041 44.8146 53.1045 45.2653C53.0727 45.0431 53.041 44.8146 53.0156 44.5924C53.0474 44.8273 53.06 45.0622 53.0664 45.297C53.0791 46.6681 54.2217 47.8361 55.6055 47.8361C56.6084 47.8361 57.6177 47.8361 58.6206 47.8361C59.2871 47.8361 59.9663 47.8488 60.6074 47.6266C61.3818 47.3664 62.1372 46.9347 62.6641 46.3C62.9307 45.9762 63.1846 45.6589 63.3496 45.278C63.6289 44.6496 63.7558 44.1862 63.8257 43.5006C63.8955 42.7897 63.8447 42.047 63.8447 41.3361C63.8447 40.0348 63.8447 38.7336 63.8447 37.4323C63.8447 36.5881 63.8447 35.7502 63.8447 34.9059C63.8447 33.5793 62.6767 32.3034 61.3056 32.3669C59.9409 32.4303 58.7729 33.484 58.7729 34.9059ZM17.9702 45.2907C17.9702 45.5256 17.9512 45.7604 17.9194 45.9953C17.9512 45.7731 17.9829 45.5446 18.0083 45.3224C17.9448 45.7795 17.8179 46.2174 17.6465 46.6364C17.729 46.4333 17.8179 46.2301 17.9004 46.027C17.7227 46.4396 17.4941 46.8205 17.2212 47.1759C17.3545 47.0046 17.4878 46.8332 17.6211 46.6618C17.3608 46.9919 17.0688 47.2839 16.7388 47.5441C16.9102 47.4108 17.0815 47.2775 17.2529 47.1442C16.8975 47.4172 16.5166 47.6457 16.104 47.8234C16.3071 47.7409 16.5103 47.652 16.7134 47.5695C16.2881 47.7472 15.8501 47.8678 15.3994 47.9313C15.6216 47.8996 15.8501 47.8678 16.0723 47.8424C15.6025 47.9059 15.1328 47.9059 14.6631 47.8424C14.8853 47.8742 15.1138 47.9059 15.3359 47.9313C14.8789 47.8678 14.4409 47.7409 14.022 47.5695C14.2251 47.652 14.4282 47.7409 14.6313 47.8234C14.2187 47.6457 13.8379 47.4172 13.4824 47.1442C13.6538 47.2775 13.8252 47.4108 13.9966 47.5441C13.6665 47.2839 13.3745 46.9919 13.1143 46.6618C13.2476 46.8332 13.3809 47.0046 13.5142 47.1759C13.2412 46.8205 13.0127 46.4396 12.835 46.027C12.9175 46.2301 13.0063 46.4333 13.0889 46.6364C12.9111 46.2111 12.7905 45.7731 12.7271 45.3224C12.7588 45.5446 12.7905 45.7731 12.8159 45.9953C12.7524 45.5256 12.7524 45.0558 12.8159 44.5861C12.7842 44.8083 12.7524 45.0368 12.7271 45.259C12.7905 44.8019 12.9175 44.3639 13.0889 43.945C13.0063 44.1481 12.9175 44.3512 12.835 44.5544C13.0127 44.1418 13.2412 43.7609 13.5142 43.4054C13.3809 43.5768 13.2476 43.7482 13.1143 43.9196C13.3745 43.5895 13.6665 43.2975 13.9966 43.0373C13.8252 43.1706 13.6538 43.3039 13.4824 43.4372C13.8379 43.1642 14.2187 42.9357 14.6313 42.758C14.4282 42.8405 14.2251 42.9294 14.022 43.0119C14.4473 42.8341 14.8853 42.7135 15.3359 42.6501C15.1138 42.6818 14.8853 42.7135 14.6631 42.7389C15.1328 42.6755 15.6025 42.6755 16.0723 42.7389C15.8501 42.7072 15.6216 42.6755 15.3994 42.6501C15.8564 42.7135 16.2944 42.8405 16.7134 43.0119C16.5103 42.9294 16.3071 42.8405 16.104 42.758C16.5166 42.9357 16.8975 43.1642 17.2529 43.4372C17.0815 43.3039 16.9102 43.1706 16.7388 43.0373C17.0688 43.2975 17.3608 43.5895 17.6211 43.9196C17.4878 43.7482 17.3545 43.5768 17.2212 43.4054C17.4941 43.7609 17.7227 44.1418 17.9004 44.5544C17.8179 44.3512 17.729 44.1481 17.6465 43.945C17.8242 44.3703 17.9448 44.8083 18.0083 45.259C17.9766 45.0368 17.9448 44.8083 17.9194 44.5861C17.9575 44.821 17.9702 45.0558 17.9702 45.2907C17.9766 45.9445 18.2495 46.6237 18.7129 47.0871C19.1509 47.5251 19.8745 47.8615 20.5093 47.8298C21.874 47.7663 23.061 46.7126 23.0483 45.2907C23.0356 43.7863 22.604 42.193 21.709 40.9679C21.1377 40.1935 20.5791 39.6222 19.8174 39.0446C19.2144 38.5812 18.5352 38.2765 17.8242 38.0163C17.1069 37.7497 16.3071 37.6354 15.5391 37.61C14.7837 37.5846 13.9902 37.6862 13.2603 37.8957C11.8574 38.2956 10.4927 39.1271 9.55957 40.257C8.9375 41.0124 8.5249 41.7233 8.15674 42.631C7.87109 43.342 7.75684 44.0846 7.68701 44.8464C7.56006 46.3381 7.98535 47.9504 8.75342 49.2262C9.50244 50.4704 10.645 51.5749 11.9717 52.1779C12.8984 52.5968 13.7236 52.8254 14.7329 52.9333C15.4883 53.0158 16.2437 52.9333 16.9863 52.7873C18.5415 52.4953 20.103 51.5622 21.1187 50.3498C22.3247 48.9089 23.0166 47.1823 23.0356 45.2843C23.0483 43.9577 21.8613 42.6818 20.4966 42.7453C19.1255 42.8151 17.9829 43.8688 17.9702 45.2907Z" fill="#393D46"/>
<path d="M53.0727 45.2904C53.0727 45.5253 53.0537 45.7602 53.022 45.995C53.0537 45.7729 53.0854 45.5443 53.1108 45.3222C53.0473 45.7792 52.9204 46.2172 52.749 46.6361C52.8315 46.433 52.9204 46.2299 53.0029 46.0268C52.8252 46.4394 52.5967 46.8202 52.3237 47.1757C52.457 47.0043 52.5903 46.8329 52.7236 46.6615C52.4634 46.9916 52.1714 47.2836 51.8413 47.5439C52.0127 47.4106 52.1841 47.2773 52.3555 47.144C52 47.4169 51.6191 47.6454 51.2065 47.8232C51.4097 47.7406 51.6128 47.6518 51.8159 47.5692C51.3906 47.747 50.9526 47.8676 50.5019 47.9311C50.7241 47.8993 50.9526 47.8676 51.1748 47.8422C50.7051 47.9057 50.2353 47.9057 49.7656 47.8422C49.9878 47.8739 50.2163 47.9057 50.4385 47.9311C49.9814 47.8676 49.5434 47.7406 49.1245 47.5692C49.3276 47.6518 49.5308 47.7406 49.7339 47.8232C49.3213 47.6454 48.9404 47.4169 48.585 47.144C48.7563 47.2773 48.9277 47.4106 49.0991 47.5439C48.769 47.2836 48.477 46.9916 48.2168 46.6615C48.3501 46.8329 48.4834 47.0043 48.6167 47.1757C48.3437 46.8202 48.1152 46.4394 47.9375 46.0268C48.02 46.2299 48.1089 46.433 48.1914 46.6361C48.0137 46.2108 47.8931 45.7729 47.8296 45.3222C47.8613 45.5443 47.8931 45.7729 47.9185 45.995C47.855 45.5253 47.855 45.0556 47.9185 44.5859C47.8867 44.808 47.855 45.0365 47.8296 45.2587C47.8931 44.8017 48.02 44.3637 48.1914 43.9447C48.1089 44.1479 48.02 44.351 47.9375 44.5541C48.1152 44.1415 48.3437 43.7607 48.6167 43.4052C48.4834 43.5766 48.3501 43.748 48.2168 43.9193C48.477 43.5893 48.769 43.2973 49.0991 43.037C48.9277 43.1703 48.7563 43.3036 48.585 43.4369C48.9404 43.164 49.3213 42.9355 49.7339 42.7577C49.5308 42.8402 49.3276 42.9291 49.1245 43.0116C49.5498 42.8339 49.9878 42.7133 50.4385 42.6498C50.2163 42.6816 49.9878 42.7133 49.7656 42.7387C50.2353 42.6752 50.7051 42.6752 51.1748 42.7387C50.9526 42.7069 50.7241 42.6752 50.5019 42.6498C50.959 42.7133 51.397 42.8402 51.8159 43.0116C51.6128 42.9291 51.4097 42.8402 51.2065 42.7577C51.6191 42.9355 52 43.164 52.3555 43.4369C52.1841 43.3036 52.0127 43.1703 51.8413 43.037C52.1714 43.2973 52.4634 43.5893 52.7236 43.9193C52.5903 43.748 52.457 43.5766 52.3237 43.4052C52.5967 43.7607 52.8252 44.1415 53.0029 44.5541C52.9204 44.351 52.8315 44.1479 52.749 43.9447C52.9267 44.37 53.0473 44.808 53.1108 45.2587C53.0791 45.0365 53.0473 44.808 53.022 44.5859C53.0537 44.8207 53.0727 45.0556 53.0727 45.2904C53.0791 45.9442 53.352 46.6234 53.8154 47.0868C54.2534 47.5248 54.977 47.8612 55.6118 47.8295C56.9765 47.766 58.1635 46.7123 58.1509 45.2904C58.1382 43.786 57.7065 42.1928 56.8115 40.9677C56.2402 40.1933 55.6816 39.622 54.9199 39.0444C54.3169 38.581 53.6377 38.2763 52.9267 38.016C52.2095 37.7494 51.4097 37.6352 50.6416 37.6098C49.8862 37.5844 49.0928 37.686 48.3628 37.8954C46.96 38.2953 45.5952 39.1269 44.6621 40.2568C44.04 41.0121 43.6274 41.7231 43.2593 42.6308C42.9736 43.3417 42.8594 44.0844 42.7896 44.8461C42.6626 46.3378 43.0879 47.9501 43.856 49.226C44.605 50.4701 45.7476 51.5746 47.0742 52.1776C48.001 52.5966 48.8262 52.8251 49.8354 52.933C50.5908 53.0155 51.3462 52.933 52.0889 52.787C53.644 52.495 55.2055 51.5619 56.2212 50.3495C57.4272 48.9086 58.1191 47.182 58.1382 45.2841C58.1509 43.9574 56.9638 42.6816 55.5991 42.745C54.228 42.8149 53.0854 43.8686 53.0727 45.2904Z" fill="#393D46"/>
</svg>
