<svg width="19" height="17" viewBox="0 0 19 17" fill="none" xmlns="http://www.w3.org/2000/svg">
<path d="M5.81199 16.8379H5.72781C4.03193 16.8231 2.36056 16.4313 0.834742 15.691C0.554073 15.5591 0.322978 15.3409 0.175286 15.0682C0.0275949 14.7956 -0.0289361 14.4828 0.0139688 14.1757C0.0606312 13.8665 0.203786 13.5799 0.422994 13.357C0.642203 13.134 0.926258 12.9859 1.23461 12.934C2.18019 12.8078 3.08985 12.4891 3.90738 11.9975C2.48803 10.8878 1.39534 9.41475 0.745108 7.73451C0.0948743 6.05428 -0.0886789 4.22943 0.213901 2.45336C0.254927 2.17204 0.375913 1.90842 0.562464 1.69389C0.749014 1.47936 0.993273 1.32294 1.26617 1.24325C1.53168 1.15986 1.81582 1.1563 2.08334 1.233C2.35085 1.3097 2.58994 1.46328 2.77092 1.67468C3.38545 2.48049 4.15771 3.15266 5.04058 3.65018C5.92345 4.14769 6.89842 4.46013 7.90602 4.56843C7.95415 3.3287 8.48691 2.15737 9.38972 1.30638C9.84052 0.874712 10.3727 0.537077 10.9553 0.31315C11.5379 0.089223 12.1592 -0.0165172 12.7831 0.00209108C13.407 0.0206993 14.0209 0.163284 14.5891 0.421536C15.1573 0.679788 15.6684 1.04854 16.0927 1.50631C16.2032 1.60404 16.3406 1.66631 16.4869 1.68508C16.6333 1.70384 16.7819 1.67822 16.9135 1.61154C17.1644 1.49321 17.4437 1.44866 17.719 1.4831C17.9943 1.51754 18.254 1.62955 18.468 1.80605C18.682 1.98255 18.8414 2.21627 18.9276 2.47993C19.0139 2.7436 19.0233 3.02635 18.9549 3.29518C18.7122 4.29496 18.2523 5.22904 17.608 6.03109C17.466 9.02454 16.1462 11.8405 13.9365 13.8649C11.7268 15.8893 8.80641 16.9579 5.81199 16.8379ZM5.81199 14.7334H5.89617C7.11962 14.7755 8.33925 14.5743 9.48435 14.1415C10.6295 13.7086 11.6773 13.0528 12.567 12.212C13.4567 11.3712 14.1707 10.3622 14.6676 9.24335C15.1644 8.12454 15.4342 6.91823 15.4613 5.69436C15.4787 5.35895 15.617 5.0412 15.8507 4.79993C16.1073 4.47503 16.3262 4.12201 16.5031 3.74765C16.124 3.74838 15.749 3.66908 15.4027 3.51495C15.0564 3.36082 14.7465 3.13533 14.4932 2.85322C14.2497 2.61178 13.9605 2.42135 13.6425 2.29306C13.3245 2.16477 12.9841 2.10122 12.6412 2.10611C12.2949 2.09715 11.9503 2.15669 11.627 2.28128C11.3038 2.40588 11.0084 2.5931 10.7577 2.83218C10.4195 3.15312 10.1715 3.55726 10.0385 4.00416C9.90553 4.45106 9.89227 4.92504 10 5.37868L10.2736 6.57827L9.04247 6.66245C7.78089 6.76532 6.51203 6.59275 5.32375 6.15669C4.13548 5.72062 3.05618 5.03148 2.16061 4.137C2.1222 5.5222 2.46871 6.89093 3.16163 8.09099C3.85454 9.29105 4.86671 10.2754 6.08558 10.9347L7.08524 11.5029L6.42231 12.45C5.70539 13.3902 4.72308 14.0939 3.60222 14.4703C4.32125 14.6505 5.06022 14.7389 5.80147 14.7334H5.81199Z" fill="white"/>
</svg>
