<svg width="169" height="63" viewBox="0 0 169 63" fill="none" xmlns="http://www.w3.org/2000/svg">
<path d="M25.8411 15.1327C25.5419 12.8671 24.922 10.9007 23.9816 9.23354C23.0411 7.52362 21.78 6.21981 20.1984 5.32211C18.6594 4.38166 16.7999 3.91143 14.6198 3.91143C12.5251 3.91143 10.7725 4.5099 9.36178 5.70684C7.99385 6.90378 7.30989 8.37858 7.30989 10.1312C7.30989 11.5847 7.71599 12.8457 8.5282 13.9144C9.38316 14.9831 10.6015 15.9663 12.1831 16.864C13.7648 17.719 15.6457 18.6167 17.8259 19.5572C19.4503 20.2411 21.0961 21.0106 22.7632 21.8655C24.4304 22.6777 25.9693 23.6609 27.38 24.8151C28.7907 25.9693 29.9235 27.3159 30.7785 28.8548C31.6762 30.351 32.125 32.1464 32.125 34.241C32.125 36.7204 31.4624 38.9219 30.1373 40.8456C28.8548 42.7693 27.0167 44.2654 24.6228 45.3341C22.2289 46.4028 19.4075 46.9372 16.1587 46.9372C14.3633 46.9372 12.461 46.6593 10.4519 46.1036C8.44271 45.5906 6.60455 44.7998 4.93738 43.7311L5.12975 46.4883H0.769462L0.641218 31.9327H4.29616C4.76639 35.5662 6.11295 38.3235 8.33584 40.2044C10.5587 42.0425 13.2305 42.9616 16.3511 42.9616C17.9327 42.9616 19.3434 42.6838 20.5831 42.128C21.8228 41.5296 22.7846 40.7387 23.4686 39.7555C24.1953 38.7296 24.5587 37.5754 24.5587 36.2929C24.5587 34.6258 24.0457 33.2578 23.0197 32.1891C21.9938 31.1205 20.69 30.2014 19.1083 29.4319C17.5266 28.6625 15.8808 27.9144 14.1709 27.1876C12.2473 26.3754 10.4305 25.5205 8.72057 24.6228C7.01065 23.6823 5.4931 22.635 4.16792 21.4808C2.88548 20.2839 1.85953 18.9159 1.09007 17.377C0.363357 15.8381 0 14.0213 0 11.9267C0 10.687 0.235113 9.38316 0.70534 8.01523C1.17557 6.60455 1.94503 5.30074 3.01372 4.1038C4.12517 2.90686 5.59997 1.92366 7.43813 1.15419C9.27629 0.384731 11.5633 0 14.2992 0C16.0091 0 17.8686 0.256487 19.8778 0.769459C21.9297 1.23969 23.7251 2.03052 25.264 3.14197L25.0075 0.448851H29.4319V15.1327H25.8411Z" fill="#9F9F9F"/>
<path d="M36.043 62.2623V58.8638C37.2827 58.8638 38.159 58.586 38.672 58.0302C39.2277 57.5173 39.5697 56.7692 39.6979 55.786C39.8262 54.8028 39.8903 53.6913 39.8903 52.4516L39.9544 24.0457C39.9544 23.2762 39.9544 22.464 39.9544 21.6091C39.9972 20.7541 40.0826 19.8778 40.2109 18.9801C39.4842 19.0228 38.672 19.0656 37.7743 19.1083C36.9193 19.151 36.214 19.1938 35.6582 19.2365V15.0686C37.6246 15.0686 39.2063 14.9831 40.4033 14.8121C41.6429 14.5984 42.5834 14.3419 43.2246 14.0427C43.9086 13.7434 44.4002 13.4656 44.6994 13.2091H47.4567C47.5422 13.6366 47.6063 14.1495 47.649 14.748C47.6918 15.3465 47.7345 15.9022 47.7773 16.4152C49.1879 15.1755 50.6841 14.2778 52.2658 13.7221C53.8475 13.1236 55.365 12.8244 56.8184 12.8244C59.3833 12.8244 61.6703 13.487 63.6795 14.8121C65.6886 16.0946 67.2703 17.9541 68.4245 20.3907C69.5787 22.7846 70.1558 25.6274 70.1558 28.9189C70.1558 32.4243 69.4504 35.5449 68.0398 38.2807C66.6718 40.9738 64.7909 43.0899 62.397 44.6288C60.0032 46.1677 57.2459 46.9372 54.1253 46.9372C52.8429 46.9372 51.6887 46.7876 50.6627 46.4883C49.6368 46.2318 48.675 45.8898 47.7773 45.4624V53.0929C47.7773 53.7768 47.7559 54.589 47.7131 55.5295C47.7131 56.5127 47.649 57.4531 47.5208 58.3508C48.2047 58.2654 48.9315 58.2012 49.7009 58.1585C50.4704 58.1585 51.1116 58.1585 51.6246 58.1585V62.2623H36.043ZM53.42 42.8975C55.3864 42.8547 56.9681 42.2563 58.165 41.1021C59.4047 39.9051 60.3024 38.3235 60.8581 36.3571C61.4138 34.3907 61.6917 32.2533 61.6917 29.9449C61.6917 27.8502 61.4138 25.8625 60.8581 23.9816C60.3451 22.1007 59.5116 20.5831 58.3574 19.4289C57.2032 18.2747 55.6642 17.6976 53.7406 17.6976C52.5436 17.7404 51.4108 18.0396 50.3421 18.5953C49.3162 19.151 48.4612 19.8778 47.7773 20.7755C47.7773 21.7159 47.7773 22.6777 47.7773 23.6609C47.7773 24.6441 47.7773 25.6915 47.7773 26.8029C47.7773 27.9144 47.7773 29.1754 47.7773 30.5861C47.7773 31.954 47.7773 33.5143 47.7773 35.267C47.7773 37.0197 47.7773 39.0288 47.7773 41.2944C48.4612 41.7647 49.2948 42.1494 50.278 42.4486C51.2612 42.7479 52.3085 42.8975 53.42 42.8975Z" fill="#9F9F9F"/>
<path d="M93.5352 45.9112C93.4069 45.27 93.3214 44.7357 93.2787 44.3082C93.2787 43.8379 93.2573 43.3036 93.2146 42.7051C91.7611 44.1586 90.2009 45.2273 88.5337 45.9112C86.9093 46.5952 85.2207 46.9372 83.4681 46.9372C80.5612 46.9372 78.3169 46.1463 76.7353 44.5647C75.1963 42.983 74.4269 41.038 74.4269 38.7296C74.4269 36.6777 74.9826 34.9464 76.0941 33.5357C77.2055 32.0823 78.6589 30.9067 80.4543 30.009C82.2497 29.0686 84.2375 28.3632 86.4177 27.893C88.5978 27.38 90.7566 27.1022 92.894 27.0594V23.5327C92.894 22.293 92.7444 21.1602 92.4451 20.1342C92.1886 19.0656 91.697 18.232 90.9703 17.6335C90.2436 16.9923 89.1749 16.6717 87.7642 16.6717C86.8238 16.7144 85.8619 16.9282 84.8787 17.3129C83.9383 17.6549 83.1902 18.2106 82.6345 18.9801C82.9765 19.3648 83.1902 19.7923 83.2757 20.2625C83.3612 20.69 83.4039 21.0747 83.4039 21.4167C83.4039 22.1861 83.1047 22.9984 82.5062 23.8533C81.9078 24.6655 80.9459 25.0503 79.6208 25.0075C78.4666 24.9648 77.5689 24.5587 76.9276 23.7892C76.3292 23.0197 76.0299 22.1007 76.0299 21.032C76.0299 19.4075 76.607 17.9969 77.7612 16.7999C78.9582 15.5602 80.5612 14.5984 82.5704 13.9144C84.5795 13.1877 86.8238 12.8244 89.3031 12.8244C92.9795 12.8244 95.8008 13.7862 97.7672 15.7098C99.7336 17.6335 100.695 20.7113 100.653 24.9434C100.653 26.4396 100.653 27.8075 100.653 29.0472C100.653 30.2441 100.631 31.4624 100.589 32.7021C100.589 33.8991 100.589 35.2456 100.589 36.7418C100.589 37.383 100.567 38.1952 100.524 39.1784C100.482 40.1189 100.418 41.0593 100.332 41.9998C101.102 41.9143 101.871 41.8715 102.64 41.8715C103.453 41.8288 104.115 41.786 104.628 41.7433V45.9112H93.5352ZM92.8298 30.8426C91.5474 30.9281 90.2864 31.1418 89.0467 31.4838C87.807 31.783 86.6955 32.2105 85.7123 32.7662C84.7291 33.322 83.9383 34.0273 83.3398 34.8823C82.7841 35.6945 82.5276 36.6349 82.5704 37.7036C82.6131 39.0288 83.0406 40.012 83.8528 40.6532C84.665 41.2517 85.6055 41.5509 86.6742 41.5509C87.9138 41.5509 89.0253 41.2944 90.0085 40.7815C91.0344 40.2685 91.9749 39.5845 92.8298 38.7296C92.8298 38.3021 92.8298 37.8532 92.8298 37.383C92.8298 36.9128 92.8298 36.4426 92.8298 35.9723C92.8298 35.3739 92.8298 34.6258 92.8298 33.7281C92.8298 32.8304 92.8298 31.8685 92.8298 30.8426Z" fill="#9F9F9F"/>
<path d="M120.761 46.9372C119.564 46.9372 118.389 46.7876 117.235 46.4883C116.123 46.1891 115.097 45.6334 114.157 44.8211C113.259 44.0089 112.532 42.812 111.977 41.2303C111.421 39.6059 111.143 37.4685 111.143 34.8181L111.271 18.2747L106.719 18.3388V13.8503C108.001 13.8076 109.241 13.3801 110.438 12.5679C111.635 11.7129 112.682 10.6015 113.58 9.23354C114.477 7.86561 115.076 6.41218 115.375 4.87326H119.287L119.222 13.8503H128.264V17.9541L119.222 18.1465L119.158 34.6258C119.158 35.9082 119.265 37.1052 119.479 38.2166C119.735 39.2853 120.163 40.1403 120.761 40.7815C121.403 41.4227 122.258 41.7433 123.326 41.7433C124.138 41.7433 125.058 41.4868 126.084 40.9738C127.152 40.4609 128.221 39.4349 129.29 37.896L131.919 40.2685C130.85 41.8929 129.738 43.154 128.584 44.0517C127.473 44.9494 126.383 45.612 125.314 46.0395C124.288 46.4669 123.369 46.7234 122.557 46.8089C121.745 46.8944 121.146 46.9372 120.761 46.9372Z" fill="#9F9F9F"/>
<path d="M147.519 46.9372C145.04 46.9372 143.009 46.4669 141.428 45.5265C139.889 44.586 138.756 43.0899 138.029 41.038C137.303 38.9433 136.939 36.2075 136.939 32.8304V24.1098C136.939 23.3831 136.961 22.5709 137.003 21.6732C137.046 20.7755 137.089 19.8778 137.132 18.9801C136.448 19.0228 135.678 19.0656 134.823 19.1083C133.968 19.1083 133.263 19.1297 132.707 19.1724V15.0686H133.797C136.148 15.0686 137.965 14.8763 139.248 14.4915C140.573 14.0641 141.47 13.6366 141.941 13.2091H144.89V32.8304C144.89 35.9082 145.296 38.1952 146.109 39.6914C146.964 41.1876 148.331 41.9357 150.212 41.9357C151.495 41.8929 152.756 41.5082 153.996 40.7815C155.278 40.0548 156.304 39.1998 157.073 38.2166V24.3663C157.073 23.5113 157.095 22.635 157.138 21.7373C157.18 20.7968 157.244 19.8778 157.33 18.9801C156.646 19.0228 155.855 19.0656 154.957 19.1083C154.102 19.1083 153.397 19.1297 152.841 19.1724V15.0686H154.509C156.475 15.0686 158.099 14.8549 159.382 14.4274C160.707 13.9999 161.583 13.5938 162.011 13.2091H164.96V36.2288C164.96 36.8273 164.939 37.7036 164.896 38.8578C164.854 40.012 164.789 41.0593 164.704 41.9998C165.431 41.9143 166.2 41.8715 167.012 41.8715C167.824 41.8288 168.487 41.786 169 41.7433V45.9112H157.843C157.757 45.3127 157.672 44.7143 157.586 44.1158C157.544 43.5173 157.501 42.9402 157.458 42.3845C156.133 43.5815 154.637 44.6502 152.97 45.5906C151.345 46.4883 149.528 46.9372 147.519 46.9372Z" fill="#9F9F9F"/>
</svg>
