<svg width="205" height="51" viewBox="0 0 205 51" fill="none" xmlns="http://www.w3.org/2000/svg">
<path d="M39.5956 44.9135C40.2363 45.8959 40.8984 46.6861 41.5818 47.2841C42.2652 47.8821 43.1408 48.3946 44.2087 48.8218V50.1032C41.2187 49.975 37.8871 49.911 34.2137 49.911C31.3946 49.911 28.6822 49.975 26.0767 50.1032V48.8218C27.2727 48.7363 28.127 48.6082 28.6395 48.4373C29.1948 48.2665 29.4725 47.9675 29.4725 47.5403C29.4725 47.1986 29.2375 46.6647 28.7677 45.9386L19.4774 30.882C18.6232 29.5152 17.897 28.5968 17.299 28.127C16.7438 27.6571 15.9749 27.3795 14.9925 27.2941V43.3117C14.9925 44.9348 15.0993 46.1094 15.3129 46.8356C15.5691 47.5617 16.0176 48.0529 16.6583 48.3092C17.299 48.5655 18.3455 48.7363 19.7978 48.8218V50.1032C17.4913 49.975 14.2664 49.911 10.1231 49.911C5.55278 49.911 2.1784 49.975 0 50.1032V48.8218C1.40955 48.7363 2.43468 48.5655 3.07539 48.3092C3.75881 48.0529 4.2073 47.5617 4.42087 46.8356C4.67715 46.1094 4.80529 44.9348 4.80529 43.3117V11.5327C4.80529 9.90958 4.67715 8.73495 4.42087 8.00882C4.2073 7.28269 3.75881 6.79148 3.07539 6.5352C2.43468 6.27891 1.40955 6.10806 0 6.02263V4.74122C2.1784 4.86936 5.55278 4.93343 10.1231 4.93343C14.2664 4.93343 17.4913 4.86936 19.7978 4.74122V6.02263C18.3455 6.10806 17.299 6.27891 16.6583 6.5352C16.0176 6.79148 15.5691 7.28269 15.3129 8.00882C15.0993 8.73495 14.9925 9.90958 14.9925 11.5327V25.9486C16.7011 25.8631 18.2601 25.3506 19.6697 24.4109C21.0792 23.4712 22.681 21.9762 24.4749 19.9259L28.2551 15.3769C30.2199 13.1131 31.2024 11.1269 31.2024 9.41837C31.2024 8.39324 30.7752 7.58168 29.9209 6.98369C29.1094 6.3857 27.9561 6.04399 26.4611 5.95856V4.74122C29.5792 4.86936 32.7401 4.93343 35.9436 4.93343C38.421 4.93343 40.4285 4.86936 41.9662 4.74122V5.95856C38.5491 6.77012 35.4524 8.82038 32.676 12.1093L24.6672 21.6558L39.5956 44.9135Z" fill="#9F9F9F"/>
<path d="M53.5545 50.5517C50.8208 50.5517 48.7705 49.8469 47.4037 48.4373C46.0796 47.0278 45.4175 45.1697 45.4175 42.8632C45.4175 40.9411 45.9087 39.3607 46.8911 38.122C47.9163 36.8406 49.1336 35.8581 50.5431 35.1747C51.9954 34.4913 53.8321 33.7652 56.0532 32.9963C58.4025 32.1848 60.111 31.4586 61.1789 30.8179C62.2894 30.1345 62.8447 29.2162 62.8447 28.0629V23.0654C62.8447 21.2714 62.4176 19.8832 61.5633 18.9008C60.7517 17.8757 59.4703 17.3631 57.7191 17.3631C55.6688 17.3631 54.1097 17.8757 53.0419 18.9008C54.2379 19.3279 55.1562 19.9687 55.7969 20.8229C56.4804 21.6772 56.8221 22.681 56.8221 23.8342C56.8221 25.2865 56.3309 26.4398 55.3484 27.2941C54.366 28.1483 53.17 28.5755 51.7605 28.5755C50.2655 28.5755 49.1122 28.1056 48.3007 27.1659C47.4891 26.2262 47.0833 25.0516 47.0833 23.642C47.0833 22.4461 47.361 21.4423 47.9163 20.6307C48.5142 19.7764 49.4112 18.9862 50.6072 18.2601C51.7605 17.5767 53.17 17.0428 54.8359 16.6583C56.5444 16.2739 58.4025 16.0817 60.41 16.0817C62.503 16.0817 64.3183 16.2953 65.856 16.7224C67.3937 17.1496 68.6751 17.8757 69.7002 18.9008C70.6399 19.8405 71.2593 20.9938 71.5583 22.3606C71.9 23.7275 72.0709 25.5855 72.0709 27.9348V45.3619C72.0709 46.3871 72.1563 47.1132 72.3271 47.5403C72.5407 47.9675 72.9251 48.1811 73.4804 48.1811C74.1211 48.1811 74.89 47.818 75.7869 47.0919L76.4276 48.1811C74.5055 49.7615 72.1563 50.5517 69.3799 50.5517C67.0306 50.5517 65.3862 50.0818 64.4465 49.1421C63.5068 48.2024 63.0155 46.9424 62.9728 45.3619C60.8372 48.8218 57.6977 50.5517 53.5545 50.5517ZM58.4879 46.4511C60.1537 46.4511 61.606 45.5755 62.8447 43.8243V30.6898C62.3321 31.5441 61.2429 32.4838 59.5771 33.5089C57.9113 34.5767 56.6512 35.6446 55.7969 36.7124C54.9427 37.7803 54.5155 39.318 54.5155 41.3255C54.5155 43.0768 54.8786 44.3795 55.6047 45.2338C56.3309 46.0454 57.2919 46.4511 58.4879 46.4511Z" fill="#9F9F9F"/>
<path d="M91.265 16.9787H98.8253V18.2601H91.265V44.1446C91.265 45.426 91.4786 46.3444 91.9057 46.8996C92.3755 47.4122 93.1017 47.6685 94.0841 47.6685C95.9208 47.6685 97.373 46.3871 98.4409 43.8243L99.5301 44.4009C97.907 48.8004 94.9811 51.0002 90.7524 51.0002C87.9333 51.0002 85.7976 50.274 84.3454 48.8218C83.4484 47.9248 82.829 46.8142 82.4873 45.4901C82.1883 44.1232 82.0388 42.2652 82.0388 39.916V18.2601H76.6569V16.9787H82.0388V8.52138C85.5841 8.52138 88.6594 7.83796 91.265 6.47113V16.9787Z" fill="#9F9F9F"/>
<path d="M113.79 22.0403C115.712 18.0679 119.193 16.0817 124.233 16.0817C127.565 16.0817 129.914 16.9146 131.281 18.5805C132.007 19.392 132.52 20.4599 132.819 21.784C133.16 23.0654 133.331 24.7739 133.331 26.9096V44.1446C133.331 45.8959 133.63 47.1132 134.228 47.7966C134.826 48.4373 135.894 48.7577 137.432 48.7577V50.1032C132.99 49.9323 130.17 49.8469 128.975 49.8469C127.522 49.8469 124.746 49.9323 120.645 50.1032V48.7577C121.927 48.7577 122.824 48.4373 123.336 47.7966C123.849 47.1132 124.105 45.8959 124.105 44.1446V24.2187C124.105 22.4674 123.806 21.1433 123.208 20.2463C122.653 19.3493 121.628 18.9008 120.133 18.9008C118.339 18.9008 116.822 19.6056 115.584 21.0151C114.388 22.382 113.79 24.1332 113.79 26.2689V44.1446C113.79 45.8959 114.046 47.1132 114.559 47.7966C115.071 48.4373 115.968 48.7577 117.25 48.7577V50.1032C113.149 49.9323 110.501 49.8469 109.305 49.8469C107.853 49.8469 104.905 49.9323 100.463 50.1032V48.7577C101.958 48.7577 103.005 48.4373 103.603 47.7966C104.243 47.1132 104.564 45.8959 104.564 44.1446V7.68847C104.564 5.72364 104.243 4.29273 103.603 3.39574C103.005 2.49875 101.958 2.05026 100.463 2.05026V0.704778C101.83 0.83292 103.154 0.896991 104.435 0.896991C108.152 0.896991 111.27 0.597994 113.79 0V22.0403Z" fill="#9F9F9F"/>
<path d="M156.294 16.0817C161.206 16.0817 165.05 17.4913 167.827 20.3104C170.603 23.0868 171.991 27.5076 171.991 33.573C171.991 39.6383 170.603 44.0592 167.827 46.8356C165.05 49.612 161.206 51.0002 156.294 51.0002C151.425 51.0002 147.58 49.612 144.761 46.8356C141.985 44.0592 140.597 39.6383 140.597 33.573C140.597 27.5076 141.985 23.0868 144.761 20.3104C147.58 17.4913 151.425 16.0817 156.294 16.0817ZM156.294 17.3631C154.457 17.3631 152.984 18.7086 151.873 21.3996C150.805 24.0478 150.271 28.1056 150.271 33.573C150.271 39.0403 150.805 43.0981 151.873 45.7464C152.984 48.3946 154.457 49.7187 156.294 49.7187C158.173 49.7187 159.647 48.416 160.715 45.8104C161.783 43.1622 162.317 39.083 162.317 33.573C162.317 28.0629 161.761 23.9837 160.651 21.3355C159.583 18.6872 158.131 17.3631 156.294 17.3631Z" fill="#9F9F9F"/>
<path d="M192.65 16.0817C194.23 16.0817 195.725 16.2526 197.135 16.5943C198.544 16.936 199.719 17.4058 200.658 18.0038C201.769 18.6872 202.623 19.5629 203.221 20.6307C203.862 21.6558 204.182 22.7878 204.182 24.0265C204.182 25.5214 203.712 26.7601 202.773 27.7425C201.833 28.6822 200.616 29.1521 199.121 29.1521C197.626 29.1521 196.43 28.725 195.533 27.8707C194.636 27.0164 194.187 25.8631 194.187 24.4109C194.187 23.1295 194.593 22.0189 195.405 21.0792C196.216 20.1395 197.22 19.4988 198.416 19.1571C198.074 18.6872 197.54 18.3242 196.814 18.0679C196.131 17.7689 195.383 17.6194 194.572 17.6194C192.009 17.6194 190.001 19.029 188.549 21.8481C187.14 24.6244 186.435 28.2765 186.435 32.8041C186.435 37.3745 187.246 40.6634 188.869 42.671C190.493 44.6785 192.521 45.6823 194.956 45.6823C196.408 45.6823 197.861 45.2979 199.313 44.529C200.808 43.7602 202.153 42.4147 203.349 40.4926L204.439 40.877C203.584 43.6534 202.089 46.0454 199.954 48.0529C197.818 50.0177 195.063 51.0002 191.689 51.0002C187.289 51.0002 183.701 49.5479 180.925 46.6434C178.148 43.7388 176.76 39.4247 176.76 33.7011C176.76 29.9423 177.444 26.7388 178.81 24.0905C180.177 21.4423 182.057 19.4561 184.449 18.132C186.841 16.7651 189.574 16.0817 192.65 16.0817Z" fill="#9F9F9F"/>
</svg>
