<svg width="24" height="24" viewBox="0 0 24 24" fill="none" xmlns="http://www.w3.org/2000/svg">
<path d="M19 4H5C4.20435 4 3.44129 4.31607 2.87868 4.87868C2.31607 5.44129 2 6.20435 2 7V17C2 17.7956 2.31607 18.5587 2.87868 19.1213C3.44129 19.6839 4.20435 20 5 20H19C19.7956 20 20.5587 19.6839 21.1213 19.1213C21.6839 18.5587 22 17.7956 22 17V7C22 6.20435 21.6839 5.44129 21.1213 4.87868C20.5587 4.31607 19.7956 4 19 4ZM18.427 6L12.6 10.8C12.4335 10.9267 12.2312 10.9976 12.022 11.0026C11.8129 11.0077 11.6074 10.9465 11.435 10.828L5.573 6H18.427ZM19 18H5C4.73478 18 4.48043 17.8946 4.29289 17.7071C4.10536 17.5196 4 17.2652 4 17V7.3L10.2 12.4C10.7159 12.7863 11.3435 12.9944 11.988 12.993C12.6551 12.992 13.3037 12.774 13.836 12.372L20 7.3V17C20 17.2652 19.8946 17.5196 19.7071 17.7071C19.5196 17.8946 19.2652 18 19 18Z" fill="white"/>
</svg>
