<svg width="96" height="96" viewBox="0 0 96 96" fill="none" xmlns="http://www.w3.org/2000/svg">
<path d="M34.1712 78H62.1712C63.2321 78 64.2495 77.5786 64.9996 76.8284C65.7498 76.0783 66.1712 75.0609 66.1712 74V40.828L69.3432 44C70.1047 44.7281 71.1176 45.1345 72.1712 45.1345C73.2248 45.1345 74.2377 44.7281 74.9992 44L80.1712 38.828C80.9211 38.0779 81.3423 37.0607 81.3423 36C81.3423 34.9394 80.9211 33.9221 80.1712 33.172L66.7552 19.756C66.1996 19.1977 65.5388 18.755 64.811 18.4536C64.0832 18.1521 63.3029 17.998 62.5152 18H33.8272C33.0395 17.998 32.2592 18.1521 31.5314 18.4536C30.8036 18.755 30.1428 19.1977 29.5872 19.756L16.1712 33.172C15.4213 33.9221 15.0001 34.9394 15.0001 36C15.0001 37.0607 15.4213 38.0779 16.1712 38.828L21.3432 44C22.1047 44.7281 23.1176 45.1345 24.1712 45.1345C25.2248 45.1345 26.2377 44.7281 26.9992 44L30.1712 40.828V74C30.1712 75.0609 30.5926 76.0783 31.3428 76.8284C32.0929 77.5786 33.1103 78 34.1712 78ZM53.8032 22C53.3959 23.1691 52.6349 24.1825 51.6257 24.8996C50.6165 25.6166 49.4092 26.0019 48.1712 26.0019C46.9332 26.0019 45.7259 25.6166 44.7167 24.8996C43.7075 24.1825 42.9465 23.1691 42.5392 22H53.8032ZM24.1712 41.172L18.9992 36L32.4152 22.584C32.79 22.2101 33.2978 22.0001 33.8272 22H38.3752C38.8342 24.2606 40.0607 26.293 41.8467 27.7528C43.6327 29.2126 45.8685 30.01 48.1752 30.01C50.4819 30.01 52.7177 29.2126 54.5037 27.7528C56.2897 26.293 57.5162 24.2606 57.9752 22H62.5232C63.0526 22.0001 63.5604 22.2101 63.9352 22.584L77.3432 36L72.1712 41.172L65.5872 34.584C65.3075 34.3036 64.9508 34.1125 64.5624 34.0351C64.1739 33.9576 63.7712 33.9972 63.4054 34.1489C63.0395 34.3005 62.7268 34.5574 62.5071 34.887C62.2874 35.2166 62.1705 35.6039 62.1712 36V74H34.1712V36C34.1719 35.6039 34.055 35.2166 33.8353 34.887C33.6156 34.5574 33.303 34.3005 32.9371 34.1489C32.5712 33.9972 32.1685 33.9576 31.78 34.0351C31.3916 34.1125 31.0349 34.3036 30.7552 34.584L24.1712 41.172Z" fill="#393D46"/>
</svg>
