<svg width="80" height="48" viewBox="0 0 80 48" fill="none" xmlns="http://www.w3.org/2000/svg">
<rect width="80" height="48" fill="white"/>
<path d="M53.5 24.1999C53.5 23.7892 53.3419 23.3954 53.0606 23.105C52.7793 22.8146 52.3978 22.6515 52 22.6515L31.615 22.6515L33.565 20.6541C33.8474 20.3625 34.0061 19.9671 34.0061 19.5547C34.0061 19.1424 33.8474 18.7469 33.565 18.4554C33.2825 18.1638 32.8994 18 32.5 18C32.1005 18 31.7174 18.1638 31.435 18.4554L26.935 23.1005C26.7268 23.3183 26.5858 23.5948 26.5298 23.8951C26.4737 24.1955 26.5051 24.5063 26.62 24.7883C26.7325 25.071 26.9236 25.3131 27.1692 25.4839C27.4148 25.6548 27.7038 25.7467 28 25.7483L52 25.7483C52.3978 25.7483 52.7793 25.5851 53.0606 25.2948C53.3419 25.0044 53.5 24.6105 53.5 24.1999Z" fill="#CDCFD1"/>
<path d="M34 28.845C34.0012 28.6412 33.9633 28.4392 33.8887 28.2506C33.814 28.0619 33.7041 27.8903 33.565 27.7457L29.065 23.1005C28.7826 22.8089 28.3995 22.6451 28 22.6451C27.8022 22.6451 27.6064 22.6854 27.4237 22.7635C27.2409 22.8416 27.0749 22.9561 26.935 23.1005C26.7952 23.2449 26.6842 23.4163 26.6085 23.6049C26.5329 23.7935 26.4939 23.9957 26.4939 24.1999C26.4939 24.6122 26.6526 25.0076 26.935 25.2992L31.435 29.9444C31.5745 30.0895 31.7404 30.2047 31.9232 30.2833C32.106 30.3619 32.302 30.4024 32.5 30.4024C32.6981 30.4024 32.8941 30.3619 33.0769 30.2833C33.2597 30.2047 33.4256 30.0895 33.565 29.9444C33.7041 29.7997 33.814 29.6281 33.8887 29.4395C33.9633 29.2508 34.0012 29.0488 34 28.845Z" fill="#CDCFD1"/>
</svg>
