<svg width="19" height="19" viewBox="0 0 19 19" fill="none" xmlns="http://www.w3.org/2000/svg">
<path d="M18.6878 17.1894L15.1001 13.6122C16.2576 12.1375 16.8857 10.3164 16.8834 8.4417C16.8834 6.77209 16.3883 5.13997 15.4607 3.75174C14.5331 2.36352 13.2147 1.28152 11.6722 0.64259C10.1297 0.00365763 8.43234 -0.163516 6.79481 0.162209C5.15728 0.487933 3.65311 1.29193 2.47252 2.47252C1.29193 3.65311 0.487933 5.15728 0.162209 6.79481C-0.163516 8.43234 0.00365763 10.1297 0.64259 11.6722C1.28152 13.2147 2.36352 14.5331 3.75174 15.4607C5.13997 16.3883 6.77209 16.8834 8.4417 16.8834C10.3164 16.8857 12.1375 16.2576 13.6122 15.1001L17.1894 18.6878C17.2875 18.7867 17.4042 18.8652 17.5328 18.9188C17.6614 18.9724 17.7993 18.9999 17.9386 18.9999C18.0779 18.9999 18.2158 18.9724 18.3444 18.9188C18.473 18.8652 18.5897 18.7867 18.6878 18.6878C18.7867 18.5897 18.8652 18.473 18.9188 18.3444C18.9724 18.2158 18.9999 18.0779 18.9999 17.9386C18.9999 17.7993 18.9724 17.6614 18.9188 17.5328C18.8652 17.4042 18.7867 17.2875 18.6878 17.1894ZM2.11043 8.4417C2.11043 7.18949 2.48175 5.96541 3.17744 4.92423C3.87313 3.88306 4.86194 3.07157 6.01883 2.59237C7.17572 2.11317 8.44872 1.98779 9.67687 2.23208C10.905 2.47638 12.0331 3.07937 12.9186 3.96481C13.804 4.85026 14.407 5.97838 14.6513 7.20653C14.8956 8.43468 14.7702 9.70769 14.291 10.8646C13.8118 12.0215 13.0003 13.0103 11.9592 13.706C10.918 14.4016 9.69391 14.773 8.4417 14.773C6.76254 14.773 5.15216 14.1059 3.96481 12.9186C2.77747 11.7312 2.11043 10.1209 2.11043 8.4417Z" fill="#393D46"/>
</svg>
