<svg width="48" height="48" viewBox="0 0 48 48" fill="none" xmlns="http://www.w3.org/2000/svg">
<path d="M37.5002 24.1999C37.5002 23.7892 37.3422 23.3954 37.0609 23.105C36.7796 22.8146 36.398 22.6515 36.0002 22.6515L15.6152 22.6515L17.5652 20.6541C17.8477 20.3625 18.0063 19.9671 18.0063 19.5547C18.0063 19.1424 17.8477 18.7469 17.5652 18.4554C17.2828 18.1638 16.8997 18 16.5002 18C16.1008 18 15.7177 18.1638 15.4352 18.4554L10.9352 23.1005C10.7271 23.3183 10.5861 23.5948 10.53 23.8951C10.474 24.1955 10.5053 24.5063 10.6202 24.7883C10.7327 25.071 10.9238 25.3131 11.1694 25.4839C11.415 25.6548 11.7041 25.7467 12.0002 25.7483L36.0002 25.7483C36.398 25.7483 36.7796 25.5851 37.0609 25.2948C37.3422 25.0044 37.5002 24.6105 37.5002 24.1999Z" fill="#CDCFD1"/>
<path d="M18.0003 28.845C18.0014 28.6412 17.9636 28.4392 17.8889 28.2506C17.8143 28.0619 17.7043 27.8903 17.5653 27.7457L13.0653 23.1005C12.7828 22.8089 12.3997 22.6451 12.0003 22.6451C11.8025 22.6451 11.6066 22.6854 11.4239 22.7635C11.2412 22.8416 11.0751 22.9561 10.9353 23.1005C10.7954 23.2449 10.6845 23.4163 10.6088 23.6049C10.5331 23.7935 10.4941 23.9957 10.4941 24.1999C10.4941 24.6122 10.6528 25.0076 10.9353 25.2992L15.4353 29.9444C15.5747 30.0895 15.7406 30.2047 15.9234 30.2833C16.1062 30.3619 16.3023 30.4024 16.5003 30.4024C16.6983 30.4024 16.8944 30.3619 17.0771 30.2833C17.2599 30.2047 17.4258 30.0895 17.5653 29.9444C17.7043 29.7997 17.8143 29.6281 17.8889 29.4395C17.9636 29.2508 18.0014 29.0488 18.0003 28.845Z" fill="#CDCFD1"/>
</svg>
