<svg width="174" height="49" viewBox="0 0 174 49" fill="none" xmlns="http://www.w3.org/2000/svg">
<path d="M6.01621 30.269V48.1297H0V2.50675H16.8266C21.8192 2.50675 25.7256 3.78102 28.5457 6.32955C31.3866 8.87808 32.8071 12.2518 32.8071 16.4506C32.8071 20.8792 31.418 24.2946 28.6397 26.6969C25.8822 29.0783 21.9236 30.269 16.7639 30.269H6.01621ZM6.01621 25.3495H16.8266C20.0436 25.3495 22.5086 24.5975 24.2215 23.0935C25.9345 21.5685 26.7909 19.3751 26.7909 16.5132C26.7909 13.7976 25.9345 11.6251 24.2215 9.99568C22.5086 8.36629 20.1585 7.52026 17.1713 7.45759H6.01621V25.3495Z" fill="#9F9F9F"/>
<path d="M53.2058 48.7563C48.6101 48.7563 44.8709 47.2523 41.9881 44.2442C39.1053 41.2152 37.664 37.1731 37.664 32.1178V31.0524C37.664 27.6892 38.3011 24.6915 39.5754 22.0594C40.8705 19.4064 42.667 17.3384 44.9649 15.8552C47.2836 14.3512 49.7904 13.5991 52.4851 13.5991C56.8928 13.5991 60.3187 15.051 62.7628 17.9546C65.2069 20.8583 66.429 25.0153 66.429 30.4257V32.8385H43.4608C43.5444 36.1808 44.5158 38.886 46.3749 40.9541C48.255 43.0013 50.6364 44.0249 53.5192 44.0249C55.5664 44.0249 57.3002 43.6071 58.7207 42.7715C60.1412 41.9359 61.3841 40.8287 62.4495 39.45L65.9903 42.2075C63.1493 46.5734 58.8878 48.7563 53.2058 48.7563ZM52.4851 18.362C50.1455 18.362 48.1819 19.2184 46.5943 20.9314C45.0067 22.6234 44.0249 25.0049 43.6488 28.0756H60.6321V27.637C60.465 24.6915 59.6712 22.4146 58.2507 20.8061C56.8302 19.1767 54.9083 18.362 52.4851 18.362Z" fill="#9F9F9F"/>
<path d="M89.5538 19.4273C88.6764 19.2811 87.7259 19.208 86.7023 19.208C82.9004 19.208 80.3205 20.8269 78.9627 24.0648V48.1297H73.1659V14.2258H78.8061L78.9001 18.1426C80.801 15.1136 83.4958 13.5991 86.9843 13.5991C88.1124 13.5991 88.9688 13.7454 89.5538 14.0378V19.4273Z" fill="#9F9F9F"/>
<path d="M100.395 14.2258L100.583 18.4873C103.174 15.2285 106.558 13.5991 110.736 13.5991C117.901 13.5991 121.515 17.6413 121.578 25.7256V48.1297H115.781V25.6942C115.76 23.2501 115.196 21.4432 114.089 20.2734C113.002 19.1035 111.3 18.5186 108.981 18.5186C107.101 18.5186 105.451 19.02 104.03 20.0227C102.61 21.0254 101.503 22.3414 100.709 23.9708V48.1297H94.9119V14.2258H100.395Z" fill="#9F9F9F"/>
<path d="M136.618 48.1297H130.821V14.2258H136.618V48.1297ZM130.351 5.23285C130.351 4.29281 130.633 3.49901 131.197 2.85143C131.782 2.20385 132.639 1.88006 133.767 1.88006C134.895 1.88006 135.751 2.20385 136.336 2.85143C136.921 3.49901 137.213 4.29281 137.213 5.23285C137.213 6.17288 136.921 6.95624 136.336 7.58293C135.751 8.20962 134.895 8.52296 133.767 8.52296C132.639 8.52296 131.782 8.20962 131.197 7.58293C130.633 6.95624 130.351 6.17288 130.351 5.23285Z" fill="#9F9F9F"/>
<path d="M155.387 32.4311L151.753 36.2226V48.1297H145.956V0H151.753V29.1097L154.855 25.3809L165.414 14.2258H172.465L159.273 28.389L174 48.1297H167.2L155.387 32.4311Z" fill="#9F9F9F"/>
</svg>
