<svg width="32" height="32" viewBox="0 0 32 32" fill="none" xmlns="http://www.w3.org/2000/svg">
<path d="M20.667 4.66666H11.2536C10.9139 4.66601 10.5867 4.79508 10.3389 5.02752C10.0911 5.25995 9.94137 5.57822 9.92031 5.91733L8.66964 25.9173C8.65815 26.0994 8.68413 26.2818 8.74597 26.4534C8.80781 26.625 8.9042 26.7821 9.02918 26.9149C9.15415 27.0478 9.30506 27.1536 9.47255 27.2258C9.64005 27.298 9.82058 27.335 10.003 27.3347H12.7296C13.0452 27.3345 13.3506 27.2224 13.5913 27.0183C13.832 26.8142 13.9925 26.5313 14.0443 26.22L15.9603 14.7227L17.8763 26.22C17.9283 26.5311 18.089 26.8137 18.3297 27.0175C18.5704 27.2213 18.8756 27.3332 19.191 27.3333H21.9176C22.0999 27.3337 22.2803 27.2967 22.4477 27.2245C22.6151 27.1524 22.766 27.0467 22.8909 26.914C23.0159 26.7813 23.1123 26.6244 23.1742 26.453C23.2362 26.2816 23.2623 26.0993 23.251 25.9173L22.0003 5.91733C21.9792 5.57822 21.8295 5.25995 21.5817 5.02752C21.3339 4.79508 21.0067 4.66601 20.667 4.66666ZM20.667 5.99999L20.8136 8.34799C20.3601 8.14582 19.9751 7.81632 19.7053 7.39951C19.4354 6.9827 19.2924 6.49652 19.2936 5.99999H20.667ZM12.627 5.99999C12.628 6.49648 12.4849 6.98259 12.2151 7.39937C11.9453 7.81615 11.5604 8.14568 11.107 8.34799L11.2536 5.99999H12.627ZM19.191 26L16.6176 10.5573C16.5914 10.402 16.5109 10.261 16.3906 10.1593C16.2703 10.0576 16.1178 10.0018 15.9603 10.0018C15.8028 10.0018 15.6503 10.0576 15.53 10.1593C15.4097 10.261 15.3292 10.402 15.303 10.5573L12.7296 26H10.003L11.011 9.88666C11.8383 9.61357 12.5632 9.09578 13.0898 8.40178C13.6164 7.70778 13.92 6.87026 13.9603 5.99999H15.2936V7.99999C15.2936 8.1768 15.3639 8.34637 15.4889 8.4714C15.6139 8.59642 15.7835 8.66666 15.9603 8.66666C16.1371 8.66666 16.3067 8.59642 16.4317 8.4714C16.5567 8.34637 16.627 8.1768 16.627 7.99999V5.99999H17.9603C18.0006 6.87026 18.3042 7.70778 18.8308 8.40178C19.3574 9.09578 20.0823 9.61357 20.9096 9.88666L21.9176 26H19.191Z" fill="#9F9F9F"/>
</svg>
