<svg width="48" height="48" viewBox="0 0 48 48" fill="none" xmlns="http://www.w3.org/2000/svg">
<path d="M10.4998 24.1999C10.4998 23.7892 10.6578 23.3954 10.9391 23.105C11.2204 22.8146 11.602 22.6515 11.9998 22.6515L32.3848 22.6515L30.4348 20.6541C30.1523 20.3625 29.9937 19.9671 29.9937 19.5547C29.9937 19.1424 30.1523 18.7469 30.4348 18.4554C30.7172 18.1638 31.1003 18 31.4998 18C31.8992 18 32.2823 18.1638 32.5648 18.4554L37.0648 23.1005C37.2729 23.3183 37.4139 23.5948 37.47 23.8951C37.526 24.1955 37.4947 24.5063 37.3798 24.7883C37.2673 25.071 37.0762 25.3131 36.8306 25.4839C36.585 25.6548 36.2959 25.7467 35.9998 25.7483L11.9998 25.7483C11.602 25.7483 11.2204 25.5851 10.9391 25.2948C10.6578 25.0044 10.4998 24.6105 10.4998 24.1999Z" fill="#393D46"/>
<path d="M29.9997 28.845C29.9986 28.6412 30.0364 28.4392 30.1111 28.2506C30.1857 28.0619 30.2957 27.8903 30.4347 27.7457L34.9347 23.1005C35.2172 22.8089 35.6003 22.6451 35.9997 22.6451C36.1975 22.6451 36.3934 22.6854 36.5761 22.7635C36.7588 22.8416 36.9249 22.9561 37.0647 23.1005C37.2046 23.2449 37.3155 23.4163 37.3912 23.6049C37.4669 23.7935 37.5059 23.9957 37.5059 24.1999C37.5059 24.6122 37.3472 25.0077 37.0647 25.2992L32.5647 29.9444C32.4253 30.0895 32.2594 30.2047 32.0766 30.2833C31.8938 30.3619 31.6977 30.4024 31.4997 30.4024C31.3017 30.4024 31.1056 30.3619 30.9229 30.2833C30.7401 30.2047 30.5742 30.0895 30.4347 29.9444C30.2957 29.7997 30.1857 29.6281 30.1111 29.4395C30.0364 29.2508 29.9986 29.0488 29.9997 28.845Z" fill="#393D46"/>
</svg>
