<svg width="32" height="32" viewBox="0 0 32 32" fill="none" xmlns="http://www.w3.org/2000/svg">
<path d="M24.9825 9.79333C24.8745 9.52336 24.7089 9.28019 24.4972 9.08077C24.2856 8.88136 24.033 8.73048 23.7571 8.63866L20.6065 7.588L19.7651 5.90533C19.5998 5.57241 19.3446 5.29242 19.0284 5.09707C18.7121 4.90172 18.3475 4.79881 17.9758 4.8H14.2905C13.9188 4.79881 13.5542 4.90172 13.2379 5.09707C12.9217 5.29242 12.6665 5.57241 12.5011 5.90533L11.6598 7.588L8.50914 8.63866C8.23324 8.73048 7.98068 8.88136 7.76905 9.08077C7.55743 9.28019 7.39184 9.52336 7.28381 9.79333L5.03848 15.408C4.88008 15.8017 4.79904 16.2223 4.79981 16.6467V24.8C4.79981 25.1536 4.94029 25.4927 5.19033 25.7428C5.44038 25.9928 5.77952 26.1333 6.13314 26.1333H7.46648C7.8201 26.1333 8.15924 25.9928 8.40929 25.7428C8.65933 25.4927 8.79981 25.1536 8.79981 24.8V22.8987L9.46648 20.6747V22.1707C9.5058 22.9223 9.73517 23.6518 10.1331 24.2907V26.1333C10.1331 26.4869 10.2736 26.8261 10.5237 27.0761C10.7737 27.3262 11.1129 27.4667 11.4665 27.4667H20.7998C21.1534 27.4667 21.4926 27.3262 21.7426 27.0761C21.9927 26.8261 22.1331 26.4869 22.1331 26.1333V24.2907C22.5312 23.6518 22.7605 22.9223 22.7998 22.1707V20.6747L23.4665 22.8987V24.8C23.4665 25.1536 23.607 25.4927 23.857 25.7428C24.107 25.9928 24.4462 26.1333 24.7998 26.1333H26.1331C26.4868 26.1333 26.8259 25.9928 27.076 25.7428C27.326 25.4927 27.4665 25.1536 27.4665 24.8V16.6467C27.4674 16.2227 27.3863 15.8025 27.2278 15.4093L24.9825 9.79333ZM23.4518 9.97333C22.7407 11.0426 22.0895 12.1506 21.5011 13.292C21.4305 13.5587 21.4905 13.2493 21.4665 20.8C20.936 20.8 20.4273 20.5893 20.0523 20.2142C19.6772 19.8391 19.4665 19.3304 19.4665 18.8C19.4665 18.6232 19.3962 18.4536 19.2712 18.3286C19.1462 18.2036 18.9766 18.1333 18.7998 18.1333C18.623 18.1333 18.4534 18.2036 18.3284 18.3286C18.2034 18.4536 18.1331 18.6232 18.1331 18.8C18.1331 19.684 18.4843 20.5319 19.1095 21.157C19.7346 21.7821 20.5824 22.1333 21.4665 22.1333V22.1707C21.4388 22.6301 21.2972 23.0755 21.0545 23.4667H16.7998V11.1573L20.2318 8.86933C24.0398 10.164 23.1865 9.81866 23.4518 9.97333ZM13.3331 7.23466L14.1585 8.67866L12.9985 7.90533L13.3331 7.23466ZM18.9438 7.23466L19.2785 7.90133L18.1185 8.67466L18.9438 7.23466ZM18.0291 6.14666L16.1331 9.456L14.2425 6.14666C14.5131 6.13333 17.7518 6.13333 18.0238 6.14666H18.0291ZM12.0345 8.86933L15.4665 11.1573V23.4667H11.2118C10.9671 23.0765 10.8253 22.6306 10.7998 22.1707V22.1333C11.6839 22.1333 12.5317 21.7821 13.1568 21.157C13.782 20.5319 14.1331 19.684 14.1331 18.8C14.1331 18.6232 14.0629 18.4536 13.9379 18.3286C13.8129 18.2036 13.6433 18.1333 13.4665 18.1333C13.2897 18.1333 13.1201 18.2036 12.9951 18.3286C12.87 18.4536 12.7998 18.6232 12.7998 18.8C12.7998 19.3304 12.5891 19.8391 12.214 20.2142C11.839 20.5893 11.3302 20.8 10.7998 20.8C10.7758 13.2507 10.8358 13.552 10.7651 13.292C10.1772 12.1503 9.52598 11.0424 8.81448 9.97333C9.01848 9.85333 10.6745 9.33333 12.0345 8.86933ZM6.13314 24.8V23.4667H7.46648V24.8H6.13314ZM9.38248 16.3173L7.63714 22.1333H6.13314V16.6467C6.13304 16.3923 6.18146 16.1402 6.27581 15.904L8.09314 11.3627L9.46648 13.6507V15.7427C9.46659 15.9373 9.43829 16.1309 9.38248 16.3173ZM11.4665 26.1333V24.8H20.7998V26.1333H11.4665ZM22.7998 15.7427V13.6507L24.1731 11.3627L25.9905 15.9053C26.0851 16.141 26.1335 16.3927 26.1331 16.6467V22.1333H24.6291L22.8838 16.316C22.8279 16.13 22.7996 15.9369 22.7998 15.7427ZM24.7998 24.8V23.4667H26.1331V24.8H24.7998Z" fill="#9F9F9F"/>
</svg>
