<svg width="24" height="24" viewBox="0 0 24 24" fill="none" xmlns="http://www.w3.org/2000/svg">
<path d="M12.0002 15C11.8686 15.0008 11.7381 14.9755 11.6163 14.9258C11.4944 14.876 11.3836 14.8027 11.2902 14.71L7.29019 10.71C7.10188 10.5217 6.99609 10.2663 6.99609 10C6.99609 9.7337 7.10188 9.47831 7.29019 9.29C7.47849 9.1017 7.73388 8.99591 8.00019 8.99591C8.26649 8.99591 8.52188 9.1017 8.71019 9.29L12.0002 12.59L15.2902 9.3C15.4815 9.13618 15.7276 9.05057 15.9792 9.06029C16.2309 9.07001 16.4697 9.17434 16.6477 9.35244C16.8258 9.53053 16.9302 9.76927 16.9399 10.0209C16.9496 10.2726 16.864 10.5187 16.7002 10.71L12.7002 14.71C12.5139 14.8947 12.2625 14.9989 12.0002 15Z" fill="#9F9F9F"/>
</svg>
