<svg width="96" height="96" viewBox="0 0 96 96" fill="none" xmlns="http://www.w3.org/2000/svg">
<path d="M24.0001 67.172C24.1246 71.6218 25.3844 75.966 27.6601 79.792C27.9926 80.4556 28.5032 81.0135 29.1347 81.4035C29.7663 81.7934 30.4938 82 31.2361 82H48.4361C49.329 82.0006 50.1965 81.7025 50.9003 81.153C51.6042 80.6036 52.104 79.8344 52.3201 78.968L54.0001 72.248L55.6801 78.968C55.8962 79.8344 56.3959 80.6036 57.0998 81.153C57.8037 81.7025 58.6711 82.0006 59.5641 82H64.7641C65.5078 82 66.2368 81.7926 66.8692 81.4011C67.5016 81.0097 68.0124 80.4497 68.3441 79.784C70.6209 75.9617 71.8797 71.6194 72.0001 67.172C72.0001 55.404 64.0001 51.724 64.0001 47.212C64.0001 41.612 72.0001 40.656 72.0001 32.788C72.0001 24.272 64.0001 25.136 64.0001 19.844V18C64.0001 16.9391 63.5787 15.9217 62.8285 15.1716C62.0784 14.4214 61.0609 14 60.0001 14H56.0001C54.9392 14 53.9218 14.4214 53.1716 15.1716C52.4215 15.9217 52.0001 16.9391 52.0001 18V20.4C52.0008 21.1796 51.8087 21.9473 51.4409 22.6347C51.0731 23.3222 50.541 23.908 49.8921 24.34C49.1818 24.8128 48.5444 25.3869 48.0001 26.044C47.4558 25.3869 46.8184 24.8128 46.1081 24.34C45.4591 23.908 44.927 23.3222 44.5592 22.6347C44.1915 21.9473 43.9994 21.1796 44.0001 20.4V18C44.0001 16.9391 43.5786 15.9217 42.8285 15.1716C42.0784 14.4214 41.0609 14 40.0001 14H36.0001C34.9392 14 33.9218 14.4214 33.1716 15.1716C32.4215 15.9217 32.0001 16.9391 32.0001 18V19.844C32.0027 20.7218 31.7599 21.5829 31.2991 22.33C30.8383 23.0771 30.1777 23.6805 29.3921 24.072C27.7673 24.8774 26.4008 26.1221 25.4478 27.6648C24.4947 29.2076 23.9931 30.9866 24.0001 32.8C24.0001 40.576 32.0001 41.704 32.0001 47.292C32.0001 51.564 24.0001 55.496 24.0001 67.172ZM28.0001 32.772C28.0001 26.476 36.0001 28.148 36.0001 19.828V18H40.0001V20.4C39.9979 21.8387 40.3523 23.2555 41.0314 24.5238C41.7106 25.7921 42.6934 26.8723 43.8921 27.668C44.5399 28.0993 45.0713 28.6838 45.439 29.3697C45.8067 30.0556 45.9995 30.8217 46.0001 31.6C46.0001 32.1304 46.2108 32.6391 46.5859 33.0142C46.9609 33.3893 47.4696 33.6 48.0001 33.6C48.5305 33.6 49.0392 33.3893 49.4143 33.0142C49.7894 32.6391 50.0001 32.1304 50.0001 31.6C49.9994 30.8204 50.1915 30.0527 50.5592 29.3653C50.927 28.6778 51.4591 28.092 52.1081 27.66C53.3056 26.8651 54.2877 25.7861 54.9668 24.5193C55.6459 23.2525 56.0009 21.8373 56.0001 20.4V18H60.0001V19.844C60.0001 28.244 68.0001 26.436 68.0001 32.788C68.0001 38.436 60.0001 39.34 60.0001 47.28C60.0001 54.3 68.0001 56.164 68.0001 67.172C67.8633 70.9978 66.7508 74.7252 64.7681 78H59.5681L55.9441 63.516C55.7943 63.1228 55.5286 62.7844 55.1821 62.5456C54.8357 62.3069 54.4248 62.179 54.0041 62.179C53.5833 62.179 53.1725 62.3069 52.826 62.5456C52.4796 62.7844 52.2139 63.1228 52.0641 63.516L48.4361 78H31.2361C29.2528 74.7252 28.1389 70.998 28.0001 67.172C28.0001 56.276 36.0001 54.336 36.0001 47.212C36.0001 39.276 28.0001 38.5 28.0001 32.8V32.772Z" fill="#393D46"/>
</svg>
