<svg width="24" height="24" viewBox="0 0 24 24" fill="none" xmlns="http://www.w3.org/2000/svg">
<path d="M8.99982 11.9997C8.99905 11.8681 9.02428 11.7376 9.07404 11.6158C9.12381 11.494 9.19713 11.3831 9.28982 11.2897L13.2898 7.2897C13.4781 7.10139 13.7335 6.99561 13.9998 6.99561C14.2661 6.99561 14.5215 7.10139 14.7098 7.2897C14.8981 7.478 15.0039 7.7334 15.0039 7.9997C15.0039 8.266 14.8981 8.52139 14.7098 8.7097L11.4098 11.9997L14.6998 15.2897C14.8636 15.481 14.9492 15.7271 14.9395 15.9788C14.9298 16.2304 14.8255 16.4692 14.6474 16.6473C14.4693 16.8254 14.2305 16.9297 13.9789 16.9394C13.7272 16.9491 13.4811 16.8635 13.2898 16.6997L9.28982 12.6997C9.10507 12.5134 9.00092 12.262 8.99982 11.9997Z" fill="#9F9F9F"/>
</svg>
