<svg width="24" height="24" viewBox="0 0 24 24" fill="none" xmlns="http://www.w3.org/2000/svg">
<path d="M15.0002 12.0003C15.0009 12.1319 14.9757 12.2624 14.926 12.3842C14.8762 12.506 14.8029 12.6169 14.7102 12.7103L10.7102 16.7103C10.5219 16.8986 10.2665 17.0044 10.0002 17.0044C9.73388 17.0044 9.47849 16.8986 9.29018 16.7103C9.10188 16.522 8.99609 16.2666 8.99609 16.0003C8.99609 15.734 9.10188 15.4786 9.29018 15.2903L12.5902 12.0003L9.30018 8.7103C9.13636 8.519 9.05075 8.27293 9.06047 8.02125C9.07019 7.76957 9.17453 7.53083 9.35262 7.35274C9.53072 7.17464 9.76945 7.07031 10.0211 7.06059C10.2728 7.05087 10.5189 7.13648 10.7102 7.3003L14.7102 11.3003C14.8949 11.4866 14.9991 11.738 15.0002 12.0003Z" fill="#9F9F9F"/>
</svg>
