<svg width="40" height="40" viewBox="0 0 40 40" fill="none" xmlns="http://www.w3.org/2000/svg">
<path d="M34.0618 11.8408C33.774 11.5182 33.4541 11.2257 33.1071 10.9678C33.2496 9.85131 33.1511 8.71725 32.8183 7.64203C32.4854 6.56682 31.926 5.57543 31.1777 4.73469C29.371 2.69856 26.2916 1.66666 22.024 1.66666H11.6676C10.9194 1.66865 10.1963 1.93657 9.62738 2.42256C9.0585 2.90855 8.68093 3.58095 8.5621 4.31966L4.24569 31.6634C4.18462 32.0299 4.20421 32.4053 4.30311 32.7635C4.402 33.1217 4.57782 33.4539 4.81829 33.7372C5.05877 34.0204 5.35813 34.2478 5.69549 34.4035C6.03286 34.5592 6.40013 34.6395 6.77169 34.6387H11.2118L11.0752 35.5062C11.0199 35.8551 11.0409 36.2119 11.1368 36.552C11.2327 36.892 11.4011 37.2073 11.6305 37.476C11.8599 37.7447 12.1448 37.9605 12.4657 38.1085C12.7865 38.2565 13.1355 38.3332 13.4889 38.3333H18.8795C19.5778 38.3389 20.2552 38.0953 20.7901 37.6464C21.325 37.1974 21.6823 36.5725 21.7978 35.8838L22.8655 29.165L22.8834 29.0739H23.3815C30.1019 29.0739 34.2995 25.7519 35.5234 19.4694C35.8968 18.1725 35.959 16.8058 35.7051 15.4803C35.4511 14.1548 34.8881 12.9079 34.0618 11.8408ZM13.0706 22.8402L11.8798 30.399L11.7359 31.3053H7.67669L11.8287 4.99999H22.024C25.2499 4.99999 27.553 5.67382 28.6777 6.94009C29.2085 7.55733 29.5788 8.29611 29.7555 9.09082C29.9323 9.88553 29.91 10.7116 29.6908 11.4957L29.6598 11.6827C29.6396 11.8102 29.6212 11.9347 29.5875 12.0931C29.2661 14.4746 28.0759 16.6534 26.2456 18.2106C24.1909 19.6396 21.7145 20.3342 19.2164 20.1823H16.1777C15.4273 20.1798 14.7009 20.4467 14.1307 20.9345C13.5605 21.4222 13.1843 22.0985 13.0706 22.8402ZM32.2519 18.8314C31.3339 23.5449 28.5149 25.7406 23.3814 25.7406H22.5758C21.8767 25.7351 21.1987 25.9794 20.6637 26.4293C20.1287 26.8792 19.7719 27.5054 19.6574 28.195L18.5751 34.9853L14.5289 35L15.3258 29.9435L16.3444 23.5221H19.2099C19.4712 23.5221 19.7022 23.4829 19.9568 23.4739C20.5548 23.4533 21.1511 23.4303 21.7112 23.3608C22.0533 23.3182 22.3672 23.2404 22.6951 23.1796C23.1493 23.0957 23.6038 23.0127 24.0302 22.8942C24.3475 22.8058 24.6436 22.6922 24.9454 22.5848C25.3441 22.4433 25.7367 22.2948 26.108 22.1204C26.388 21.9885 26.6548 21.8419 26.9189 21.6916C27.2706 21.4924 27.6113 21.2744 27.9395 21.0387C28.1767 20.8677 28.4094 20.6922 28.6312 20.5037C28.9457 20.2326 29.2444 19.9439 29.5261 19.6388C29.7144 19.4379 29.9073 19.2429 30.0816 19.0268C30.3709 18.6582 30.6381 18.2727 30.8816 17.8724C31.0091 17.6687 31.1504 17.4803 31.2677 17.266C31.6053 16.6482 31.8954 16.0057 32.1356 15.3439C32.15 15.3041 32.1707 15.2706 32.1848 15.2306C32.1915 15.2118 32.2013 15.1963 32.2079 15.1775C32.5382 16.3712 32.5533 17.6301 32.2519 18.8314Z" fill="#393D46"/>
</svg>
