<svg width="24" height="24" viewBox="0 0 24 24" fill="none" xmlns="http://www.w3.org/2000/svg">
<path d="M19.4399 12.9999C19.2199 12.9999 18.9899 12.9299 18.7699 12.8799C18.3243 12.7817 17.8865 12.6514 17.4599 12.4899C16.9959 12.3211 16.486 12.3299 16.0282 12.5145C15.5703 12.6991 15.1969 13.0465 14.9799 13.4899L14.7599 13.9399C13.7859 13.398 12.8908 12.7251 12.0999 11.9399C11.3146 11.1489 10.6417 10.2539 10.0999 9.27987L10.5199 8.99987C10.9632 8.78279 11.3106 8.4094 11.4953 7.95156C11.6799 7.49372 11.6886 6.98378 11.5199 6.51987C11.3611 6.09229 11.2308 5.65467 11.1299 5.20987C11.0799 4.98987 11.0399 4.75987 11.0099 4.52987C10.8884 3.82549 10.5195 3.18761 9.96948 2.73111C9.41948 2.2746 8.72455 2.02948 8.00986 2.03987H5.00986C4.57889 2.03582 4.15211 2.12468 3.75857 2.3004C3.36503 2.47612 3.01397 2.73456 2.72929 3.05815C2.44461 3.38174 2.23299 3.76286 2.10884 4.17558C1.9847 4.5883 1.95094 5.02293 2.00986 5.44987C2.54259 9.63925 4.45589 13.5317 7.44751 16.5125C10.4391 19.4933 14.3386 21.3924 18.5299 21.9099H18.9099C19.6473 21.911 20.3593 21.6404 20.9099 21.1499C21.2262 20.8669 21.4789 20.52 21.6513 20.1322C21.8237 19.7443 21.9118 19.3243 21.9099 18.8999V15.8999C21.8976 15.2053 21.6447 14.5364 21.1942 14.0075C20.7437 13.4786 20.1237 13.1225 19.4399 12.9999ZM19.9399 18.9999C19.9397 19.1419 19.9093 19.2822 19.8506 19.4115C19.792 19.5408 19.7065 19.6562 19.5999 19.7499C19.4881 19.8463 19.3575 19.9184 19.2163 19.9615C19.0751 20.0045 18.9264 20.0176 18.7799 19.9999C15.0348 19.5197 11.5561 17.8064 8.89257 15.1302C6.22905 12.454 4.53227 8.96721 4.06986 5.21987C4.05394 5.07339 4.06789 4.9252 4.11086 4.78426C4.15383 4.64332 4.22493 4.51256 4.31986 4.39987C4.41357 4.2932 4.52892 4.20771 4.65824 4.14909C4.78755 4.09046 4.92787 4.06005 5.06986 4.05987H8.06986C8.3024 4.05469 8.52948 4.13075 8.712 4.27494C8.89452 4.41913 9.02107 4.62244 9.06986 4.84987C9.10986 5.1232 9.15986 5.3932 9.21986 5.65987C9.33538 6.18701 9.48912 6.70505 9.67986 7.20987L8.27986 7.85987C8.16015 7.91479 8.05248 7.99282 7.96301 8.08946C7.87355 8.18611 7.80406 8.29948 7.75853 8.42306C7.713 8.54664 7.69233 8.678 7.6977 8.80959C7.70308 8.94118 7.7344 9.07041 7.78986 9.18987C9.22906 12.2726 11.7071 14.7507 14.7899 16.1899C15.0333 16.2899 15.3064 16.2899 15.5499 16.1899C15.6746 16.1453 15.7892 16.0763 15.887 15.9871C15.9849 15.8978 16.064 15.79 16.1199 15.6699L16.7399 14.2699C17.2568 14.4547 17.7844 14.6084 18.3199 14.7299C18.5865 14.7899 18.8565 14.8399 19.1299 14.8799C19.3573 14.9287 19.5606 15.0552 19.7048 15.2377C19.849 15.4202 19.925 15.6473 19.9199 15.8799L19.9399 18.9999Z" fill="white"/>
</svg>
