<svg width="64" height="64" viewBox="0 0 64 64" fill="none" xmlns="http://www.w3.org/2000/svg">
<path d="M13.8687 2.58109C13.4749 4.34359 13.0874 6.10609 12.6937 7.86859C12.0562 10.7498 11.4187 13.6248 10.7812 16.5061C10.6249 17.2186 10.4624 17.9311 10.3062 18.6436C9.86245 20.6623 9.6437 22.7498 9.76245 24.8186C10.0687 30.0436 12.1624 35.0186 15.7249 38.8686C17.4687 40.7498 19.5937 42.3561 21.8874 43.5061C24.5187 44.8248 27.3062 45.5998 30.2312 45.8623C35.5437 46.3373 41.0999 44.7311 45.3312 41.4873C47.4999 39.8248 49.3499 37.8811 50.8187 35.5686C52.1499 33.4811 53.1437 31.1123 53.6874 28.6998C54.2437 26.2373 54.4187 23.6686 54.1062 21.1561C53.9624 20.0373 53.7562 18.9436 53.5124 17.8498C52.9374 15.2561 52.3624 12.6623 51.7874 10.0686C51.2624 7.69984 50.7374 5.33734 50.2124 2.96859C50.1812 2.83734 50.1562 2.70609 50.1249 2.57484C50.0062 2.04984 49.6374 1.59359 49.2312 1.27484C48.7937 0.937337 48.2812 0.737337 47.7187 0.737337C46.6749 0.737337 45.6312 0.737337 44.5874 0.737337C42.0812 0.737337 39.5749 0.737337 37.0687 0.737337C34.0499 0.737337 31.0312 0.737337 28.0062 0.737337C25.3874 0.737337 22.7687 0.737337 20.1437 0.737337C18.8749 0.737337 17.5999 0.718587 16.3249 0.737337C16.3062 0.737337 16.2874 0.737337 16.2749 0.737337C14.9687 0.737337 13.7124 1.88734 13.7749 3.23734C13.8374 4.59359 14.8749 5.73734 16.2749 5.73734C17.3187 5.73734 18.3624 5.73734 19.4062 5.73734C21.9124 5.73734 24.4187 5.73734 26.9249 5.73734C29.9437 5.73734 32.9624 5.73734 35.9874 5.73734C38.6062 5.73734 41.2249 5.73734 43.8499 5.73734C45.1187 5.73734 46.3937 5.76234 47.6687 5.73734C47.6874 5.73734 47.7062 5.73734 47.7187 5.73734C46.9124 5.12484 46.1124 4.51234 45.3062 3.89984C45.7374 5.85609 46.1749 7.81234 46.6062 9.77484C47.2624 12.7186 47.9124 15.6686 48.5687 18.6123C48.7999 19.6436 49.0437 20.6748 49.1812 21.7248C49.1499 21.5061 49.1187 21.2811 49.0937 21.0623C49.3249 22.8123 49.3187 24.5748 49.0874 26.3248C49.1187 26.1061 49.1499 25.8811 49.1749 25.6623C48.9374 27.3811 48.4812 29.0623 47.8124 30.6623C47.8937 30.4623 47.9812 30.2623 48.0624 30.0623C47.3999 31.6311 46.5374 33.1123 45.4999 34.4686C45.6312 34.2998 45.7624 34.1311 45.8937 33.9623C44.8499 35.3123 43.6437 36.5186 42.2999 37.5561C42.4687 37.4248 42.6374 37.2936 42.8062 37.1623C41.4624 38.1936 39.9999 39.0436 38.4499 39.7061C38.6499 39.6248 38.8499 39.5373 39.0499 39.4561C37.4312 40.1373 35.7312 40.6061 33.9874 40.8436C34.2062 40.8123 34.4312 40.7811 34.6499 40.7561C32.8874 40.9873 31.1062 40.9873 29.3499 40.7561C29.5687 40.7873 29.7937 40.8186 30.0124 40.8436C28.2687 40.6061 26.5687 40.1373 24.9499 39.4561C25.1499 39.5373 25.3499 39.6248 25.5499 39.7061C23.9937 39.0436 22.5312 38.1873 21.1937 37.1623C21.3624 37.2936 21.5312 37.4248 21.6999 37.5561C20.3562 36.5123 19.1437 35.3061 18.1062 33.9623C18.2374 34.1311 18.3687 34.2998 18.4999 34.4686C17.4624 33.1123 16.6062 31.6373 15.9374 30.0623C16.0187 30.2623 16.1062 30.4623 16.1874 30.6623C15.5187 29.0623 15.0624 27.3811 14.8249 25.6623C14.8562 25.8811 14.8874 26.1061 14.9124 26.3248C14.6812 24.5748 14.6749 22.8123 14.9062 21.0623C14.8749 21.2811 14.8437 21.5061 14.8187 21.7248C14.9437 20.7936 15.1562 19.8748 15.3562 18.9561C15.6312 17.7061 15.9062 16.4623 16.1874 15.2123C16.8624 12.1623 17.5437 9.10609 18.2187 6.05609C18.3812 5.33734 18.5374 4.61859 18.6999 3.89984C18.8437 3.24359 18.7937 2.56234 18.4499 1.97484C18.1437 1.45609 17.5499 0.962337 16.9562 0.824837C16.3187 0.681087 15.5999 0.712337 15.0312 1.07484C14.4874 1.43109 14.0124 1.94359 13.8687 2.58109Z" fill="#393D46"/>
<path d="M29.5 43.469C29.5 45.419 29.5 47.369 29.5 49.3128C29.5 52.419 29.5 55.519 29.5 58.6253C29.5 59.3378 29.5 60.044 29.5 60.7565C29.5 62.0628 30.65 63.319 32 63.2565C33.3563 63.194 34.5 62.1565 34.5 60.7565C34.5 58.8065 34.5 56.8565 34.5 54.9128C34.5 51.8065 34.5 48.7065 34.5 45.6003C34.5 44.8878 34.5 44.1815 34.5 43.469C34.5 42.1628 33.35 40.9065 32 40.969C30.6437 41.0315 29.5 42.069 29.5 43.469Z" fill="#393D46"/>
<path d="M20.3438 63.2563C21.1188 63.2563 21.8938 63.2563 22.6688 63.2563C24.5188 63.2563 26.3688 63.2563 28.2188 63.2563C30.4688 63.2563 32.7188 63.2563 34.9625 63.2563C36.9 63.2563 38.8375 63.2563 40.7688 63.2563C41.7125 63.2563 42.6625 63.2751 43.6063 63.2563C43.6188 63.2563 43.6313 63.2563 43.6438 63.2563C44.95 63.2563 46.2063 62.1063 46.1438 60.7563C46.0813 59.4001 45.0438 58.2563 43.6438 58.2563C42.8688 58.2563 42.0938 58.2563 41.3188 58.2563C39.4688 58.2563 37.6188 58.2563 35.7688 58.2563C33.5188 58.2563 31.2688 58.2563 29.025 58.2563C27.0875 58.2563 25.15 58.2563 23.2188 58.2563C22.275 58.2563 21.325 58.2376 20.3813 58.2563C20.3688 58.2563 20.3563 58.2563 20.3438 58.2563C19.0375 58.2563 17.7813 59.4063 17.8438 60.7563C17.9063 62.1126 18.9438 63.2563 20.3438 63.2563ZM35.8625 25.6376C35.3938 24.3063 34.925 22.9688 34.4563 21.6376C33.7125 19.5126 32.9688 17.3876 32.2188 15.2626C32.05 14.7751 31.875 14.2938 31.7063 13.8063C30.6813 14.8313 29.6563 15.8563 28.6313 16.8813C30.2063 17.1063 31.775 17.3251 33.35 17.5501C33.575 17.5813 33.8 17.6126 34.025 17.6438C34.4688 17.7626 34.9125 17.7626 35.3563 17.6438C35.7813 17.5251 36.15 17.3126 36.4625 17.0001C37.125 16.3376 37.2875 15.4563 37.1063 14.5688C36.825 13.2251 36.55 11.8751 36.2688 10.5313C35.8188 8.37505 35.375 6.2188 34.925 4.06255C34.825 3.5688 34.7188 3.07505 34.6188 2.58755C34.4938 1.9938 33.9813 1.3938 33.4688 1.0938C32.9313 0.781301 32.1438 0.650051 31.5438 0.843801C30.9375 1.03755 30.3563 1.41255 30.05 1.9938C29.725 2.61255 29.6563 3.2313 29.8 3.9188C30.0813 5.26255 30.3563 6.61255 30.6375 7.9563C31.0875 10.1126 31.5313 12.2688 31.9813 14.4251C32.0813 14.9188 32.1875 15.4126 32.2875 15.9001C33.3125 14.8751 34.3375 13.8501 35.3625 12.8251C33.7875 12.6001 32.2188 12.3813 30.6438 12.1563C30.4188 12.1251 30.1938 12.0938 29.9688 12.0626C29.525 11.9438 29.0813 11.9438 28.6375 12.0626C28.2125 12.1813 27.8438 12.3938 27.5313 12.7063C26.9313 13.3063 26.6 14.3126 26.8875 15.1376C27.3563 16.4688 27.825 17.8063 28.2938 19.1376C29.0375 21.2626 29.7813 23.3876 30.5313 25.5126C30.7 26.0001 30.875 26.4813 31.0438 26.9688C31.2625 27.5876 31.6125 28.1251 32.1938 28.4626C32.7313 28.7751 33.5188 28.9063 34.1188 28.7126C34.725 28.5188 35.3063 28.1438 35.6125 27.5626C35.9125 26.9938 36.0875 26.2688 35.8625 25.6376Z" fill="#393D46"/>
</svg>
