<svg width="32" height="32" viewBox="0 0 32 32" fill="none" xmlns="http://www.w3.org/2000/svg">
<path d="M8.00002 22.3907C8.04152 23.8739 8.46148 25.322 9.22002 26.5973C9.33086 26.8185 9.50106 27.0045 9.71157 27.1345C9.92209 27.2645 10.1646 27.3333 10.412 27.3333H16.1454C16.443 27.3335 16.7322 27.2342 16.9668 27.051C17.2014 26.8678 17.368 26.6115 17.44 26.3227L18 24.0827L18.56 26.3227C18.6321 26.6115 18.7986 26.8678 19.0333 27.051C19.2679 27.2342 19.557 27.3335 19.8547 27.3333H21.588C21.8359 27.3333 22.0789 27.2642 22.2897 27.1337C22.5005 27.0032 22.6708 26.8166 22.7814 26.5947C23.5403 25.3206 23.9599 23.8731 24 22.3907C24 18.468 21.3334 17.2413 21.3334 15.7373C21.3334 13.8707 24 13.552 24 10.9293C24 8.09066 21.3334 8.37866 21.3334 6.61466V5.99999C21.3334 5.64637 21.1929 5.30723 20.9428 5.05718C20.6928 4.80713 20.3536 4.66666 20 4.66666H18.6667C18.3131 4.66666 17.9739 4.80713 17.7239 5.05718C17.4738 5.30723 17.3334 5.64637 17.3334 5.99999V6.79999C17.3336 7.05986 17.2696 7.31577 17.147 7.54491C17.0244 7.77405 16.847 7.96932 16.6307 8.11332C16.3939 8.27093 16.1815 8.46229 16 8.68132C15.8186 8.46229 15.6061 8.27093 15.3694 8.11332C15.153 7.96932 14.9757 7.77405 14.8531 7.54491C14.7305 7.31577 14.6665 7.05986 14.6667 6.79999V5.99999C14.6667 5.64637 14.5262 5.30723 14.2762 5.05718C14.0261 4.80713 13.687 4.66666 13.3334 4.66666H12C11.6464 4.66666 11.3073 4.80713 11.0572 5.05718C10.8072 5.30723 10.6667 5.64637 10.6667 5.99999V6.61466C10.6676 6.90726 10.5866 7.19428 10.433 7.44331C10.2794 7.69235 10.0592 7.89348 9.79736 8.02399C9.25577 8.29245 8.80028 8.70734 8.48259 9.22159C8.16489 9.73585 7.99771 10.3289 8.00002 10.9333C8.00002 13.5253 10.6667 13.9013 10.6667 15.764C10.6667 17.188 8.00002 18.4987 8.00002 22.3907ZM9.33336 10.924C9.33336 8.82532 12 9.38266 12 6.60932V5.99999H13.3334V6.79999C13.3326 7.27955 13.4508 7.75182 13.6771 8.17458C13.9035 8.59735 14.2311 8.95743 14.6307 9.22266C14.8466 9.36642 15.0238 9.56126 15.1463 9.7899C15.2689 10.0185 15.3332 10.2739 15.3334 10.5333C15.3334 10.7101 15.4036 10.8797 15.5286 11.0047C15.6536 11.1298 15.8232 11.2 16 11.2C16.1768 11.2 16.3464 11.1298 16.4714 11.0047C16.5965 10.8797 16.6667 10.7101 16.6667 10.5333C16.6665 10.2734 16.7305 10.0175 16.8531 9.78841C16.9757 9.55927 17.153 9.364 17.3694 9.21999C17.7685 8.95502 18.0959 8.59535 18.3223 8.17309C18.5486 7.75083 18.667 7.2791 18.6667 6.79999V5.99999H20V6.61466C20 9.41466 22.6667 8.81199 22.6667 10.9293C22.6667 12.812 20 13.1133 20 15.76C20 18.1 22.6667 18.7213 22.6667 22.3907C22.6211 23.6659 22.2503 24.9084 21.5894 26H19.856L18.648 21.172C18.5981 21.0409 18.5095 20.9281 18.394 20.8485C18.2786 20.769 18.1416 20.7263 18.0014 20.7263C17.8611 20.7263 17.7242 20.769 17.6087 20.8485C17.4932 20.9281 17.4046 21.0409 17.3547 21.172L16.1454 26H10.412C9.75093 24.9084 9.37964 23.666 9.33336 22.3907C9.33336 18.7587 12 18.112 12 15.7373C12 13.092 9.33336 12.8333 9.33336 10.9333V10.924Z" fill="#9F9F9F"/>
</svg>
