<svg width="183" height="69" viewBox="0 0 183 69" fill="none" xmlns="http://www.w3.org/2000/svg">
<path d="M27.2258 28.2508C29.8309 28.806 31.9236 30.1085 33.5038 32.1585C35.0839 34.1657 35.874 36.4719 35.874 39.077C35.874 42.8353 34.5501 45.8248 31.9022 48.0455C29.2971 50.2236 25.6456 51.3126 20.9479 51.3126H0V6.34201H20.2432C24.8129 6.34201 28.3789 7.38834 30.9413 9.48099C33.5465 11.5736 34.849 14.4137 34.849 18.0011C34.849 20.6489 34.1444 22.8483 32.735 24.5993C31.3684 26.3503 29.532 27.5675 27.2258 28.2508ZM10.9544 24.5353H18.1292C19.9229 24.5353 21.2895 24.1509 22.2291 23.3822C23.2113 22.5707 23.7025 21.3963 23.7025 19.8588C23.7025 18.3214 23.2113 17.1469 22.2291 16.3355C21.2895 15.5241 19.9229 15.1183 18.1292 15.1183H10.9544V24.5353ZM19.026 42.4723C20.8624 42.4723 22.2718 42.0665 23.254 41.2551C24.279 40.401 24.7915 39.1838 24.7915 37.6036C24.7915 36.0235 24.2577 34.785 23.19 33.8881C22.165 32.9913 20.7343 32.5428 18.8979 32.5428H10.9544V42.4723H19.026Z" fill="#9F9F9F"/>
<path d="M40.0495 33.3756C40.0495 29.7028 40.7328 26.4784 42.0994 23.7025C43.5087 20.9265 45.4092 18.7911 47.8008 17.2964C50.1924 15.8016 52.8616 15.0543 55.8084 15.0543C58.3281 15.0543 60.5275 15.5668 62.4067 16.5917C64.3285 17.6167 65.8019 18.962 66.8268 20.6276V15.5668H77.7812V51.3126H66.8268V46.2518C65.7592 47.9174 64.2644 49.2627 62.3426 50.2877C60.4635 51.3126 58.2641 51.8251 55.7443 51.8251C52.8403 51.8251 50.1924 51.0778 47.8008 49.583C45.4092 48.0455 43.5087 45.8888 42.0994 43.1129C40.7328 40.2942 40.0495 37.0485 40.0495 33.3756ZM66.8268 33.4397C66.8268 30.7064 66.0581 28.5497 64.5207 26.9696C63.0259 25.3894 61.1895 24.5993 59.0114 24.5993C56.8334 24.5993 54.9756 25.3894 53.4382 26.9696C51.9434 28.507 51.196 30.6424 51.196 33.3756C51.196 36.1089 51.9434 38.287 53.4382 39.9098C54.9756 41.49 56.8334 42.2801 59.0114 42.2801C61.1895 42.2801 63.0259 41.49 64.5207 39.9098C66.0581 38.3297 66.8268 36.173 66.8268 33.4397Z" fill="#9F9F9F"/>
<path d="M91.1514 11.8512C89.2296 11.8512 87.6494 11.296 86.4109 10.1857C85.2151 9.03256 84.6172 7.62323 84.6172 5.95765C84.6172 4.24936 85.2151 2.84003 86.4109 1.72964C87.6494 0.576547 89.2296 0 91.1514 0C93.0305 0 94.568 0.576547 95.7638 1.72964C97.0023 2.84003 97.6215 4.24936 97.6215 5.95765C97.6215 7.62323 97.0023 9.03256 95.7638 10.1857C94.568 11.296 93.0305 11.8512 91.1514 11.8512ZM96.6606 55.925C96.6606 60.3239 95.5502 63.4842 93.3295 65.406C91.1087 67.3705 88.0124 68.3528 84.0407 68.3528H79.7486V59.064H82.3751C83.5709 59.064 84.425 58.8291 84.9375 58.3593C85.45 57.8895 85.7062 57.1208 85.7062 56.0531V15.5668H96.6606V55.925Z" fill="#9F9F9F"/>
<path d="M139.834 15.5668V51.3126H128.88V46.444C127.769 48.0242 126.253 49.3054 124.331 50.2877C122.452 51.2272 120.36 51.697 118.053 51.697C115.32 51.697 112.907 51.0991 110.815 49.9033C108.722 48.6648 107.099 46.8925 105.946 44.5863C104.793 42.2801 104.216 39.5682 104.216 36.4506V15.5668H115.107V34.9772C115.107 37.3688 115.726 39.2265 116.964 40.5504C118.203 41.8744 119.868 42.5363 121.961 42.5363C124.096 42.5363 125.783 41.8744 127.022 40.5504C128.26 39.2265 128.88 37.3688 128.88 34.9772V15.5668H139.834Z" fill="#9F9F9F"/>
<path d="M183 15.5668V51.3126H172.046V46.444C170.935 48.0242 169.419 49.3054 167.497 50.2877C165.618 51.2272 163.526 51.697 161.219 51.697C158.486 51.697 156.073 51.0991 153.98 49.9033C151.888 48.6648 150.265 46.8925 149.112 44.5863C147.959 42.2801 147.382 39.5682 147.382 36.4506V15.5668H158.273V34.9772C158.273 37.3688 158.892 39.2265 160.13 40.5504C161.369 41.8744 163.034 42.5363 165.127 42.5363C167.262 42.5363 168.949 41.8744 170.188 40.5504C171.426 39.2265 172.046 37.3688 172.046 34.9772V15.5668H183Z" fill="#9F9F9F"/>
</svg>
