<svg width="32" height="32" viewBox="0 0 32 32" fill="none" xmlns="http://www.w3.org/2000/svg">
<path d="M11.3337 25.3333C10.9381 25.3333 10.5514 25.4506 10.2225 25.6704C9.89362 25.8902 9.63728 26.2025 9.4859 26.568C9.33452 26.9334 9.29492 27.3356 9.37209 27.7235C9.44926 28.1115 9.63974 28.4678 9.91945 28.7475C10.1992 29.0273 10.5555 29.2177 10.9435 29.2949C11.3314 29.3721 11.7336 29.3325 12.099 29.1811C12.4645 29.0297 12.7768 28.7734 12.9966 28.4445C13.2164 28.1156 13.3337 27.7289 13.3337 27.3333C13.3337 26.8029 13.1229 26.2942 12.7479 25.9191C12.3728 25.544 11.8641 25.3333 11.3337 25.3333ZM25.3337 21.3333H9.33366C8.98004 21.3333 8.6409 21.1929 8.39085 20.9428C8.1408 20.6928 8.00033 20.3536 8.00033 20C8.00033 19.6464 8.1408 19.3072 8.39085 19.0572C8.6409 18.8071 8.98004 18.6667 9.33366 18.6667H20.6553C21.5238 18.6639 22.3681 18.3797 23.0616 17.8567C23.755 17.3336 24.2603 16.6 24.5017 15.7656L26.6156 8.36653C26.6723 8.1681 26.6822 7.9592 26.6444 7.7563C26.6067 7.5534 26.5224 7.36202 26.3981 7.19724C26.2738 7.03246 26.113 6.89878 25.9283 6.80671C25.7436 6.71464 25.54 6.6667 25.3337 6.66667H8.98575C8.70973 5.88981 8.20092 5.21695 7.52863 4.73975C6.85633 4.26256 6.05327 4.00424 5.22885 4H4.00033C3.6467 4 3.30756 4.14048 3.05752 4.39052C2.80747 4.64057 2.66699 4.97971 2.66699 5.33333C2.66699 5.68696 2.80747 6.02609 3.05752 6.27614C3.30756 6.52619 3.6467 6.66667 4.00033 6.66667H5.22885C5.51829 6.66768 5.79962 6.76242 6.03071 6.93671C6.2618 7.11099 6.43021 7.35545 6.51074 7.63347L6.7181 8.35979L6.71842 8.36653L8.90593 16.0228C7.88801 16.1323 6.95082 16.6279 6.28735 17.4076C5.62387 18.1873 5.28461 19.1918 5.33943 20.2141C5.39424 21.2364 5.83896 22.1988 6.58201 22.9031C7.32506 23.6074 8.30987 24 9.33366 24H25.3337C25.6873 24 26.0264 23.8595 26.2765 23.6095C26.5265 23.3594 26.667 23.0203 26.667 22.6667C26.667 22.313 26.5265 21.9739 26.2765 21.7239C26.0264 21.4738 25.6873 21.3333 25.3337 21.3333ZM23.5661 9.33333L21.9378 15.0325C21.8574 15.3108 21.6889 15.5555 21.4577 15.7299C21.2265 15.9043 20.9449 15.9991 20.6553 16H11.6728L11.3329 14.8104L9.76889 9.33333H23.5661ZM22.0003 25.3333C21.6048 25.3333 21.2181 25.4506 20.8892 25.6704C20.5603 25.8902 20.3039 26.2025 20.1526 26.568C20.0012 26.9334 19.9616 27.3356 20.0388 27.7235C20.1159 28.1115 20.3064 28.4678 20.5861 28.7475C20.8658 29.0273 21.2222 29.2177 21.6101 29.2949C21.9981 29.3721 22.4002 29.3325 22.7657 29.1811C23.1311 29.0297 23.4435 28.7734 23.6633 28.4445C23.883 28.1156 24.0003 27.7289 24.0003 27.3333C24.0003 26.8029 23.7896 26.2942 23.4145 25.9191C23.0395 25.544 22.5308 25.3333 22.0003 25.3333Z" fill="white"/>
</svg>
