<svg width="32" height="32" viewBox="0 0 32 32" fill="none" xmlns="http://www.w3.org/2000/svg">
<path d="M16.0003 6.66666C9.64433 6.66666 4.66699 9.59999 4.66699 13.3333V18.6667C4.66699 21.7107 8.12433 24.3413 13.0923 25.1053C13.3723 25.253 13.6838 25.3312 14.0003 25.3333H18.0003C18.3169 25.3312 18.6283 25.253 18.9083 25.1053C23.8763 24.3413 27.3337 21.7107 27.3337 18.6667V13.3333C27.3337 9.59999 22.3563 6.66666 16.0003 6.66666ZM6.00033 18.6667V16.5173C7.72054 18.1894 9.92052 19.2817 12.2923 19.6413C12.1031 19.95 12.0021 20.3046 12.0003 20.6667V23.3333C12.0003 23.4027 12.0137 23.4667 12.0203 23.536C8.46166 22.688 6.00033 20.7573 6.00033 18.6667ZM18.667 23.3333C18.6601 23.5079 18.5876 23.6735 18.4641 23.7971C18.3405 23.9206 18.1749 23.9931 18.0003 24H16.667V22.6667H17.3337C17.5105 22.6667 17.68 22.5964 17.8051 22.4714C17.9301 22.3464 18.0003 22.1768 18.0003 22C18.0003 21.8232 17.9301 21.6536 17.8051 21.5286C17.68 21.4036 17.5105 21.3333 17.3337 21.3333H16.667V20H18.0003C18.1771 20 18.3467 20.0702 18.4717 20.1953C18.5968 20.3203 18.667 20.4898 18.667 20.6667V23.3333ZM13.3337 23.3333V20.6667C13.3337 20.4898 13.4039 20.3203 13.5289 20.1953C13.6539 20.0702 13.8235 20 14.0003 20H15.3337V21.3333C15.1568 21.3333 14.9873 21.4036 14.8623 21.5286C14.7372 21.6536 14.667 21.8232 14.667 22C14.667 22.1768 14.7372 22.3464 14.8623 22.4714C14.9873 22.5964 15.1568 22.6667 15.3337 22.6667V24H14.0003C13.8255 23.9937 13.6596 23.9214 13.5359 23.7978C13.4122 23.6741 13.3399 23.5081 13.3337 23.3333ZM19.8457 17.4867C19.979 15.872 18.2857 14.8907 16.667 14.704V13.3707C19.8017 13.644 21.9177 15.7653 19.8457 17.4867ZM13.3337 17.3333C13.3337 16.704 14.4737 16 16.0003 16C17.451 16 18.5337 16.704 18.5337 17.3333C18.5337 17.9627 17.451 18.6667 16.0003 18.6667C14.915 18.6667 13.3337 18.1613 13.3337 17.3333ZM15.3337 14.7107C13.4217 14.9173 12.0003 15.9893 12.0003 17.3307C10.1337 15.5307 12.463 13.6213 15.3337 13.3733V14.7107ZM21.7443 17.1107C21.9039 16.7615 21.991 16.3837 22.0003 16C22.0003 13.756 19.3643 12 16.0003 12C12.6363 12 10.0003 13.756 10.0003 16C10.0092 16.3851 10.0963 16.7643 10.2563 17.1147C9.81265 16.8662 9.43612 16.5135 9.15922 16.087C8.88232 15.6605 8.71338 15.173 8.66699 14.6667C8.66699 12.4987 12.0257 10.6667 16.0003 10.6667C19.975 10.6667 23.3337 12.4987 23.3337 14.6667C23.2873 15.173 23.1183 15.6605 22.8414 16.087C22.5645 16.5135 22.188 16.8662 21.7443 17.1147V17.1107ZM26.0003 18.6667C26.0003 20.7573 23.539 22.688 19.9803 23.536C19.987 23.468 20.0003 23.4027 20.0003 23.3333V20.6667C19.9986 20.3046 19.8976 19.95 19.7083 19.6413C22.0801 19.2817 24.2801 18.1894 26.0003 16.5173V18.6667ZM24.2763 16.2813C24.5311 15.7811 24.6649 15.228 24.667 14.6667C24.667 11.676 20.8603 9.33332 16.0003 9.33332C11.1403 9.33332 7.33366 11.676 7.33366 14.6667C7.33587 15.228 7.46968 15.781 7.72433 16.2813C7.23085 15.9543 6.81887 15.5185 6.52002 15.0075C6.22116 14.4965 6.04338 13.9238 6.00033 13.3333C6.00033 10.4427 10.5803 7.99999 16.0003 7.99999C21.4203 7.99999 26.0003 10.4427 26.0003 13.3333C25.9573 13.9238 25.7795 14.4965 25.4806 15.0075C25.1818 15.5185 24.7698 15.9543 24.2763 16.2813Z" fill="#9F9F9F"/>
</svg>
