<svg width="32" height="32" viewBox="0 0 32 32" fill="none" xmlns="http://www.w3.org/2000/svg">
<path d="M24.0002 8.55868V6.66668C24.0002 6.31305 23.8597 5.97392 23.6097 5.72387C23.3596 5.47382 23.0205 5.33334 22.6669 5.33334H10.6669C10.3133 5.33334 9.97412 5.47382 9.72407 5.72387C9.47402 5.97392 9.33355 6.31305 9.33355 6.66668V8.55868C8.27621 12.1 7.26288 13.6947 7.31755 16.6667C7.37488 19.768 8.48821 21.236 10.5469 27.136C10.6434 27.3894 10.8144 27.6077 11.0375 27.7619C11.2605 27.9161 11.525 27.9992 11.7962 28H17.4349C17.7505 27.9999 18.0558 27.8878 18.2965 27.6837C18.5373 27.4796 18.6978 27.1967 18.7495 26.8853L19.3335 23.388L19.9629 27.1653C20.0017 27.3988 20.1223 27.6109 20.303 27.7638C20.4837 27.9167 20.7128 28.0004 20.9495 28H21.7695C21.9725 27.9995 22.1705 27.9372 22.3372 27.8214C22.5039 27.7057 22.6314 27.542 22.7029 27.352C24.8029 21.352 25.9575 19.792 26.0149 16.668C26.0709 13.688 25.0482 12.068 24.0002 8.55868ZM22.6669 6.66668V8.00001H10.6669V6.66668H22.6669ZM21.5375 26.6667H21.2309L19.9909 19.224C19.9646 19.0687 19.8842 18.9277 19.7639 18.826C19.6435 18.7243 19.4911 18.6685 19.3335 18.6685C19.176 18.6685 19.0236 18.7243 18.9032 18.826C18.7829 18.9277 18.7025 19.0687 18.6762 19.224L17.4349 26.6667H11.7949C9.68555 20.6667 8.70821 19.4173 8.65088 16.6667C8.59621 14.0267 9.48955 12.6467 10.4815 9.33334H22.8522C23.8389 12.6267 24.7322 14.02 24.6829 16.6427C24.6322 19.4147 23.6402 20.6827 21.5375 26.6667Z" fill="#9F9F9F"/>
</svg>
