<svg width="34" height="34" viewBox="0 0 34 34" fill="none" xmlns="http://www.w3.org/2000/svg">
<path d="M0.00134756 15.1976V4.99839C0.00134756 4.54755 0.18044 4.11519 0.499227 3.7964C0.818014 3.47761 1.25038 3.29852 1.70121 3.29852H28.2021L27.7092 2.80556C27.4307 2.48037 27.2852 2.06207 27.3017 1.63426C27.3182 1.20644 27.4956 0.800618 27.7983 0.497881C28.1011 0.195144 28.5069 0.0177924 28.9347 0.00126773C29.3625 -0.0152569 29.7808 0.130262 30.106 0.408745L33.5057 3.80848C33.8223 4.12697 34 4.55781 34 5.00689C34 5.45597 33.8223 5.8868 33.5057 6.20529L30.106 9.60503C29.7808 9.88351 29.3625 10.029 28.9347 10.0125C28.5069 9.99598 28.1011 9.81863 27.7983 9.51589C27.4956 9.21316 27.3182 8.80733 27.3017 8.37951C27.2852 7.9517 27.4307 7.5334 27.7092 7.20821L28.2021 6.69825H3.40108V15.1976C3.40108 15.6484 3.22199 16.0808 2.9032 16.3996C2.58442 16.7184 2.15205 16.8975 1.70121 16.8975C1.25038 16.8975 0.818014 16.7184 0.499227 16.3996C0.18044 16.0808 0.00134756 15.6484 0.00134756 15.1976ZM32.2988 16.8975C31.848 16.8975 31.4156 17.0766 31.0968 17.3953C30.778 17.7141 30.599 18.1465 30.599 18.5973V27.0967H5.79789L6.29086 26.6037C6.56934 26.2785 6.71486 25.8602 6.69833 25.4324C6.68181 25.0046 6.50446 24.5988 6.20172 24.296C5.89898 23.9933 5.49316 23.8159 5.06534 23.7994C4.63753 23.7829 4.21923 23.9284 3.89404 24.2069L0.494309 27.6066C0.177707 27.9251 0 28.3559 0 28.805C0 29.2541 0.177707 29.6849 0.494309 30.0034L3.89404 33.4032C4.21923 33.6816 4.63753 33.8272 5.06534 33.8106C5.49316 33.7941 5.89898 33.6168 6.20172 33.314C6.50446 33.0113 6.68181 32.6055 6.69833 32.1777C6.71486 31.7498 6.56934 31.3315 6.29086 31.0064L5.79789 30.4964H32.2988C32.7497 30.4964 33.182 30.3173 33.5008 29.9985C33.8196 29.6797 33.9987 29.2474 33.9987 28.7965V18.5973C33.9987 18.1465 33.8196 17.7141 33.5008 17.3953C33.182 17.0766 32.7497 16.8975 32.2988 16.8975Z" fill="white"/>
</svg>
