<svg width="96" height="96" viewBox="0 0 96 96" fill="none" xmlns="http://www.w3.org/2000/svg">
<path d="M48 20C28.932 20 14 28.8 14 40V56C14 65.132 24.372 73.024 39.276 75.316C40.116 75.7591 41.0503 75.9936 42 76H54C54.9497 75.9936 55.884 75.7591 56.724 75.316C71.628 73.024 82 65.132 82 56V40C82 28.8 67.068 20 48 20ZM18 56V49.552C23.1606 54.5681 29.7606 57.845 36.876 58.924C36.3083 59.85 36.0053 60.9139 36 62V70C36 70.208 36.04 70.4 36.06 70.608C25.384 68.064 18 62.272 18 56ZM56 70C55.9793 70.5238 55.7619 71.0206 55.3912 71.3912C55.0206 71.7619 54.5238 71.9793 54 72H50V68H52C52.5304 68 53.0391 67.7893 53.4142 67.4142C53.7893 67.0391 54 66.5304 54 66C54 65.4696 53.7893 64.9609 53.4142 64.5858C53.0391 64.2107 52.5304 64 52 64H50V60H54C54.5304 60 55.0391 60.2107 55.4142 60.5858C55.7893 60.9609 56 61.4696 56 62V70ZM40 70V62C40 61.4696 40.2107 60.9609 40.5858 60.5858C40.9609 60.2107 41.4696 60 42 60H46V64C45.4696 64 44.9609 64.2107 44.5858 64.5858C44.2107 64.9609 44 65.4696 44 66C44 66.5304 44.2107 67.0391 44.5858 67.4142C44.9609 67.7893 45.4696 68 46 68V72H42C41.4756 71.9811 40.9778 71.7644 40.6067 71.3933C40.2356 71.0222 40.0189 70.5244 40 70ZM59.536 52.46C59.936 47.616 54.856 44.672 50 44.112V40.112C59.404 40.932 65.752 47.296 59.536 52.46ZM40 52C40 50.112 43.42 48 48 48C52.352 48 55.6 50.112 55.6 52C55.6 53.888 52.352 56 48 56C44.744 56 40 54.484 40 52ZM46 44.132C40.264 44.752 36 47.968 36 51.992C30.4 46.592 37.388 40.864 46 40.12V44.132ZM65.232 51.332C65.7106 50.2847 65.9719 49.1512 66 48C66 41.268 58.092 36 48 36C37.908 36 30 41.268 30 48C30.0265 49.1552 30.2878 50.293 30.768 51.344C29.437 50.5986 28.3074 49.5406 27.4767 48.2611C26.646 46.9816 26.1392 45.5191 26 44C26 37.496 36.076 32 48 32C59.924 32 70 37.496 70 44C69.8608 45.5191 69.354 46.9816 68.5233 48.2611C67.6926 49.5406 66.563 50.5986 65.232 51.344V51.332ZM78 56C78 62.272 70.616 68.064 59.94 70.608C59.96 70.404 60 70.208 60 70V62C59.9947 60.9139 59.6917 59.85 59.124 58.924C66.2394 57.845 72.8394 54.5681 78 49.552V56ZM72.828 48.844C73.5924 47.3433 73.9938 45.6841 74 44C74 35.028 62.58 28 48 28C33.42 28 22 35.028 22 44C22.0066 45.6841 22.408 47.3431 23.172 48.844C21.6916 47.8629 20.4556 46.5556 19.5591 45.0225C18.6625 43.4895 18.1292 41.7713 18 40C18 31.328 31.74 24 48 24C64.26 24 78 31.328 78 40C77.8708 41.7713 77.3375 43.4895 76.4409 45.0225C75.5444 46.5556 74.3084 47.8629 72.828 48.844Z" fill="#393D46"/>
</svg>
