<svg width="56" height="56" viewBox="0 0 56 56" fill="none" xmlns="http://www.w3.org/2000/svg">
<path d="M41.9996 14.9776V11.6666C41.9996 11.0478 41.7538 10.4543 41.3162 10.0167C40.8786 9.57915 40.2851 9.33331 39.6663 9.33331H18.6663C18.0475 9.33331 17.454 9.57915 17.0164 10.0167C16.5788 10.4543 16.333 11.0478 16.333 11.6666V14.9776C14.4826 21.175 12.7093 23.9656 12.805 29.1666C12.9053 34.594 14.8536 37.163 18.4563 47.488C18.6252 47.9315 18.9245 48.3134 19.3148 48.5833C19.7051 48.8532 20.1681 48.9985 20.6426 49H30.5103C31.0626 48.9997 31.5969 48.8036 32.0182 48.4464C32.4395 48.0892 32.7204 47.5941 32.811 47.0493L33.833 40.929L34.9343 47.5393C35.0023 47.9479 35.2133 48.3191 35.5295 48.5866C35.8458 48.8541 36.2467 49.0006 36.661 49H38.096C38.4511 48.999 38.7976 48.89 39.0893 48.6875C39.3811 48.4849 39.6043 48.1984 39.7293 47.866C43.4043 37.366 45.425 34.636 45.5253 29.169C45.6233 23.954 43.8336 21.119 41.9996 14.9776ZM39.6663 11.6666V14H18.6663V11.6666H39.6663ZM37.69 46.6666H37.1533L34.9833 33.642C34.9373 33.3701 34.7966 33.1234 34.586 32.9454C34.3754 32.7675 34.1087 32.6698 33.833 32.6698C33.5573 32.6698 33.2905 32.7675 33.0799 32.9454C32.8694 33.1234 32.7286 33.3701 32.6826 33.642L30.5103 46.6666H20.6403C16.949 36.1666 15.2386 33.9803 15.1383 29.1666C15.0426 24.5466 16.606 22.1316 18.342 16.3333H39.9906C41.7173 22.0966 43.2806 24.535 43.1943 29.1246C43.1056 33.9756 41.3696 36.1946 37.69 46.6666Z" fill="#393D46"/>
</svg>
