<svg width="32" height="32" viewBox="0 0 32 32" fill="none" xmlns="http://www.w3.org/2000/svg">
<path d="M26.0009 9.37414H19.0795C18.841 9.37444 18.6069 9.43914 18.402 9.5614C18.1971 9.68367 18.0291 9.85897 17.9155 10.0688C17.8249 9.67498 17.646 9.3069 17.3923 8.99237C17.1386 8.67783 16.8167 8.42508 16.4509 8.25321C16.0852 8.08133 15.6852 7.99483 15.2811 8.00024C14.877 8.00565 14.4794 8.10282 14.1184 8.28442C13.7574 8.46602 13.4424 8.72729 13.1972 9.0485C12.952 9.3697 12.7829 9.74244 12.7029 10.1386C12.6229 10.5347 12.6339 10.9438 12.7352 11.335C12.8365 11.7262 13.0254 12.0893 13.2875 12.3968C13.1275 12.4301 12.2009 12.6435 11.8395 12.7275C11.6716 12.7735 11.5284 12.8835 11.4404 13.0338C11.3525 13.1841 11.3269 13.3628 11.369 13.5318C11.4112 13.7007 11.5178 13.8465 11.666 13.9379C11.8142 14.0293 11.9923 14.059 12.1622 14.0208C13.3227 13.6877 14.5168 13.4851 15.7222 13.4168C14.726 14.2536 13.4658 14.7108 12.1649 14.7075C10.4462 14.7085 8.77708 15.2836 7.42244 16.3413C6.06781 17.3991 5.10526 18.879 4.68754 20.5461C4.65154 20.6915 4.67554 21.2755 4.66754 22.0408C4.66754 22.3035 4.71927 22.5635 4.81978 22.8062C4.92029 23.0488 5.06761 23.2693 5.25333 23.455C5.43905 23.6407 5.65952 23.7881 5.90218 23.8886C6.14483 23.9891 6.4049 24.0408 6.66754 24.0408H18.1155C18.6453 24.0391 19.153 23.8288 19.5289 23.4555L20.0009 22.9835L20.4729 23.4555C20.8487 23.8288 21.3565 24.0391 21.8862 24.0408H25.3342C25.8646 24.0408 26.3733 23.8301 26.7484 23.455C27.1235 23.0799 27.3342 22.5712 27.3342 22.0408V10.7075C27.3342 10.3539 27.1937 10.0147 26.9437 9.76467C26.6936 9.51462 26.3545 9.37414 26.0009 9.37414ZM15.3342 12.0408C15.0705 12.0408 14.8127 11.9626 14.5934 11.8161C14.3742 11.6696 14.2033 11.4614 14.1024 11.2177C14.0015 10.9741 13.975 10.706 14.0265 10.4474C14.0779 10.1887 14.2049 9.95114 14.3914 9.76467C14.5779 9.5782 14.8154 9.45121 15.0741 9.39976C15.3327 9.34832 15.6008 9.37472 15.8445 9.47564C16.0881 9.57655 16.2963 9.74745 16.4428 9.96671C16.5893 10.186 16.6675 10.4438 16.6675 10.7075V12.0408H15.3342ZM12.1649 16.0408C12.8317 16.0398 13.495 15.9428 14.1342 15.7528C14.362 16.02 14.6051 16.2737 14.8622 16.5128C14.9874 16.638 15.1572 16.7083 15.3342 16.7083C15.5112 16.7083 15.681 16.638 15.8062 16.5128C15.9314 16.3876 16.0017 16.2178 16.0017 16.0408C16.0017 15.8638 15.9314 15.694 15.8062 15.5688L15.4382 15.2008C15.6049 15.1101 15.7715 15.0181 15.9302 14.9128L16.8635 15.8461C16.9887 15.9713 17.1585 16.0416 17.3355 16.0416C17.5126 16.0416 17.6824 15.9713 17.8075 15.8461C17.9327 15.721 18.0031 15.5512 18.0031 15.3741C18.0031 15.1971 17.9327 15.0273 17.8075 14.9021L16.9715 14.0675C17.1049 13.9341 17.2382 13.8008 17.3529 13.6675L18.1969 14.5128C18.2589 14.5748 18.3324 14.624 18.4134 14.6575C18.4944 14.6911 18.5812 14.7083 18.6689 14.7083C18.7565 14.7083 18.8433 14.6911 18.9243 14.6575C19.0053 14.624 19.0789 14.5748 19.1409 14.5128C19.2029 14.4508 19.252 14.3772 19.2856 14.2963C19.3191 14.2153 19.3364 14.1285 19.3364 14.0408C19.3364 13.9531 19.3191 13.8663 19.2856 13.7854C19.252 13.7044 19.2029 13.6308 19.1409 13.5688L18.1275 12.5568C18.5635 11.7875 18.6302 11.5861 19.0809 10.7075H26.0009V20.0408H6.24888C6.72177 18.8588 7.5383 17.8458 8.59293 17.1328C9.64756 16.4197 10.8918 16.0393 12.1649 16.0408ZM25.3342 22.7075H21.8862C21.4649 22.7075 21.3142 22.3621 20.9435 22.0408C20.6894 21.7987 20.3519 21.6637 20.0009 21.6637C19.6499 21.6637 19.3123 21.7987 19.0582 22.0408C18.6862 22.3635 18.5355 22.7075 18.1155 22.7075H6.66754C6.49073 22.7075 6.32116 22.6372 6.19614 22.5122C6.07111 22.3872 6.00088 22.2176 6.00088 22.0408V21.3741H26.0009V22.0408C26.0009 22.2176 25.9306 22.3872 25.8056 22.5122C25.6806 22.6372 25.511 22.7075 25.3342 22.7075Z" fill="#9F9F9F"/>
</svg>
